<mxfile host="app.diagrams.net" agent="Mozilla/5.0 (Windows NT 10.0; Win64; x64) AppleWebKit/537.36 (KHTML, like Gecko) Chrome/141.0.0.0 Safari/537.36" version="28.2.7">
  <diagram name="Page-1" id="2YBvvXClWsGukQMizWep">
    <mxGraphModel dx="2677" dy="1710" grid="1" gridSize="10" guides="1" tooltips="1" connect="1" arrows="1" fold="1" page="1" pageScale="1" pageWidth="850" pageHeight="1100" math="0" shadow="0">
      <root>
        <mxCell id="0" />
        <mxCell id="1" parent="0" />
        <mxCell id="UFIIIXsz1D7t0Zp7uZU6-2" value="" style="shape=umlLifeline;perimeter=lifelinePerimeter;whiteSpace=wrap;html=1;container=1;dropTarget=0;collapsible=0;recursiveResize=0;outlineConnect=0;portConstraint=eastwest;newEdgeStyle={&quot;curved&quot;:0,&quot;rounded&quot;:0};participant=umlActor;" parent="1" vertex="1">
          <mxGeometry x="75" y="190" width="20" height="750" as="geometry" />
        </mxCell>
        <mxCell id="UFIIIXsz1D7t0Zp7uZU6-22" value="" style="html=1;points=[[0,0,0,0,5],[0,1,0,0,-5],[1,0,0,0,5],[1,1,0,0,-5]];perimeter=orthogonalPerimeter;outlineConnect=0;targetShapes=umlLifeline;portConstraint=eastwest;newEdgeStyle={&quot;curved&quot;:0,&quot;rounded&quot;:0};" parent="UFIIIXsz1D7t0Zp7uZU6-2" vertex="1">
          <mxGeometry x="5" y="150" width="10" height="30" as="geometry" />
        </mxCell>
        <mxCell id="UFIIIXsz1D7t0Zp7uZU6-39" value="" style="html=1;points=[[0,0,0,0,5],[0,1,0,0,-5],[1,0,0,0,5],[1,1,0,0,-5]];perimeter=orthogonalPerimeter;outlineConnect=0;targetShapes=umlLifeline;portConstraint=eastwest;newEdgeStyle={&quot;curved&quot;:0,&quot;rounded&quot;:0};" parent="UFIIIXsz1D7t0Zp7uZU6-2" vertex="1">
          <mxGeometry x="5" y="260" width="10" height="40" as="geometry" />
        </mxCell>
        <mxCell id="UFIIIXsz1D7t0Zp7uZU6-45" value="" style="html=1;points=[[0,0,0,0,5],[0,1,0,0,-5],[1,0,0,0,5],[1,1,0,0,-5]];perimeter=orthogonalPerimeter;outlineConnect=0;targetShapes=umlLifeline;portConstraint=eastwest;newEdgeStyle={&quot;curved&quot;:0,&quot;rounded&quot;:0};" parent="UFIIIXsz1D7t0Zp7uZU6-2" vertex="1">
          <mxGeometry x="5" y="330" width="10" height="30" as="geometry" />
        </mxCell>
        <mxCell id="UFIIIXsz1D7t0Zp7uZU6-62" value="" style="html=1;points=[[0,0,0,0,5],[0,1,0,0,-5],[1,0,0,0,5],[1,1,0,0,-5]];perimeter=orthogonalPerimeter;outlineConnect=0;targetShapes=umlLifeline;portConstraint=eastwest;newEdgeStyle={&quot;curved&quot;:0,&quot;rounded&quot;:0};" parent="UFIIIXsz1D7t0Zp7uZU6-2" vertex="1">
          <mxGeometry x="5" y="540" width="10" height="30" as="geometry" />
        </mxCell>
        <mxCell id="UFIIIXsz1D7t0Zp7uZU6-3" value="Cajero" style="shape=umlLifeline;perimeter=lifelinePerimeter;whiteSpace=wrap;html=1;container=1;dropTarget=0;collapsible=0;recursiveResize=0;outlineConnect=0;portConstraint=eastwest;newEdgeStyle={&quot;curved&quot;:0,&quot;rounded&quot;:0};" parent="1" vertex="1">
          <mxGeometry x="225" y="190" width="100" height="750" as="geometry" />
        </mxCell>
        <mxCell id="UFIIIXsz1D7t0Zp7uZU6-10" value="" style="html=1;points=[[0,0,0,0,5],[0,1,0,0,-5],[1,0,0,0,5],[1,1,0,0,-5]];perimeter=orthogonalPerimeter;outlineConnect=0;targetShapes=umlLifeline;portConstraint=eastwest;newEdgeStyle={&quot;curved&quot;:0,&quot;rounded&quot;:0};" parent="UFIIIXsz1D7t0Zp7uZU6-3" vertex="1">
          <mxGeometry x="45" y="80" width="10" height="620" as="geometry" />
        </mxCell>
        <mxCell id="UFIIIXsz1D7t0Zp7uZU6-18" value="" style="html=1;points=[[0,0,0,0,5],[0,1,0,0,-5],[1,0,0,0,5],[1,1,0,0,-5]];perimeter=orthogonalPerimeter;outlineConnect=0;targetShapes=umlLifeline;portConstraint=eastwest;newEdgeStyle={&quot;curved&quot;:0,&quot;rounded&quot;:0};" parent="UFIIIXsz1D7t0Zp7uZU6-3" vertex="1">
          <mxGeometry x="50" y="80" width="10" height="40" as="geometry" />
        </mxCell>
        <mxCell id="UFIIIXsz1D7t0Zp7uZU6-20" value="" style="html=1;points=[[0,0,0,0,5],[0,1,0,0,-5],[1,0,0,0,5],[1,1,0,0,-5]];perimeter=orthogonalPerimeter;outlineConnect=0;targetShapes=umlLifeline;portConstraint=eastwest;newEdgeStyle={&quot;curved&quot;:0,&quot;rounded&quot;:0};" parent="UFIIIXsz1D7t0Zp7uZU6-3" vertex="1">
          <mxGeometry x="40" y="150" width="10" height="80" as="geometry" />
        </mxCell>
        <mxCell id="UFIIIXsz1D7t0Zp7uZU6-34" value="" style="html=1;points=[[0,0,0,0,5],[0,1,0,0,-5],[1,0,0,0,5],[1,1,0,0,-5]];perimeter=orthogonalPerimeter;outlineConnect=0;targetShapes=umlLifeline;portConstraint=eastwest;newEdgeStyle={&quot;curved&quot;:0,&quot;rounded&quot;:0};" parent="UFIIIXsz1D7t0Zp7uZU6-3" vertex="1">
          <mxGeometry x="50" y="260" width="10" height="40" as="geometry" />
        </mxCell>
        <mxCell id="UFIIIXsz1D7t0Zp7uZU6-43" value="" style="html=1;points=[[0,0,0,0,5],[0,1,0,0,-5],[1,0,0,0,5],[1,1,0,0,-5]];perimeter=orthogonalPerimeter;outlineConnect=0;targetShapes=umlLifeline;portConstraint=eastwest;newEdgeStyle={&quot;curved&quot;:0,&quot;rounded&quot;:0};" parent="UFIIIXsz1D7t0Zp7uZU6-3" vertex="1">
          <mxGeometry x="40" y="320" width="10" height="50" as="geometry" />
        </mxCell>
        <mxCell id="UFIIIXsz1D7t0Zp7uZU6-4" value="Cuenta" style="shape=umlLifeline;perimeter=lifelinePerimeter;whiteSpace=wrap;html=1;container=1;dropTarget=0;collapsible=0;recursiveResize=0;outlineConnect=0;portConstraint=eastwest;newEdgeStyle={&quot;curved&quot;:0,&quot;rounded&quot;:0};" parent="1" vertex="1">
          <mxGeometry x="445" y="190" width="100" height="750" as="geometry" />
        </mxCell>
        <mxCell id="UFIIIXsz1D7t0Zp7uZU6-12" value="" style="html=1;points=[[0,0,0,0,5],[0,1,0,0,-5],[1,0,0,0,5],[1,1,0,0,-5]];perimeter=orthogonalPerimeter;outlineConnect=0;targetShapes=umlLifeline;portConstraint=eastwest;newEdgeStyle={&quot;curved&quot;:0,&quot;rounded&quot;:0};" parent="UFIIIXsz1D7t0Zp7uZU6-4" vertex="1">
          <mxGeometry x="45" y="100" width="10" height="20" as="geometry" />
        </mxCell>
        <mxCell id="UFIIIXsz1D7t0Zp7uZU6-25" value="" style="html=1;points=[[0,0,0,0,5],[0,1,0,0,-5],[1,0,0,0,5],[1,1,0,0,-5]];perimeter=orthogonalPerimeter;outlineConnect=0;targetShapes=umlLifeline;portConstraint=eastwest;newEdgeStyle={&quot;curved&quot;:0,&quot;rounded&quot;:0};" parent="UFIIIXsz1D7t0Zp7uZU6-4" vertex="1">
          <mxGeometry x="45" y="180" width="10" height="20" as="geometry" />
        </mxCell>
        <mxCell id="UFIIIXsz1D7t0Zp7uZU6-38" value="" style="html=1;points=[[0,0,0,0,5],[0,1,0,0,-5],[1,0,0,0,5],[1,1,0,0,-5]];perimeter=orthogonalPerimeter;outlineConnect=0;targetShapes=umlLifeline;portConstraint=eastwest;newEdgeStyle={&quot;curved&quot;:0,&quot;rounded&quot;:0};" parent="UFIIIXsz1D7t0Zp7uZU6-4" vertex="1">
          <mxGeometry x="45" y="300" width="10" height="400" as="geometry" />
        </mxCell>
        <mxCell id="UFIIIXsz1D7t0Zp7uZU6-51" value="" style="html=1;points=[[0,0,0,0,5],[0,1,0,0,-5],[1,0,0,0,5],[1,1,0,0,-5]];perimeter=orthogonalPerimeter;outlineConnect=0;targetShapes=umlLifeline;portConstraint=eastwest;newEdgeStyle={&quot;curved&quot;:0,&quot;rounded&quot;:0};" parent="UFIIIXsz1D7t0Zp7uZU6-4" vertex="1">
          <mxGeometry x="40" y="370" width="10" height="50" as="geometry" />
        </mxCell>
        <mxCell id="UFIIIXsz1D7t0Zp7uZU6-53" value="" style="html=1;points=[[0,0,0,0,5],[0,1,0,0,-5],[1,0,0,0,5],[1,1,0,0,-5]];perimeter=orthogonalPerimeter;outlineConnect=0;targetShapes=umlLifeline;portConstraint=eastwest;newEdgeStyle={&quot;curved&quot;:0,&quot;rounded&quot;:0};" parent="UFIIIXsz1D7t0Zp7uZU6-4" vertex="1">
          <mxGeometry x="50" y="450" width="10" height="60" as="geometry" />
        </mxCell>
        <mxCell id="UFIIIXsz1D7t0Zp7uZU6-64" value="" style="html=1;points=[[0,0,0,0,5],[0,1,0,0,-5],[1,0,0,0,5],[1,1,0,0,-5]];perimeter=orthogonalPerimeter;outlineConnect=0;targetShapes=umlLifeline;portConstraint=eastwest;newEdgeStyle={&quot;curved&quot;:0,&quot;rounded&quot;:0};" parent="UFIIIXsz1D7t0Zp7uZU6-4" vertex="1">
          <mxGeometry x="40" y="570" width="10" height="80" as="geometry" />
        </mxCell>
        <mxCell id="UFIIIXsz1D7t0Zp7uZU6-5" value="Banco" style="shape=umlLifeline;perimeter=lifelinePerimeter;whiteSpace=wrap;html=1;container=1;dropTarget=0;collapsible=0;recursiveResize=0;outlineConnect=0;portConstraint=eastwest;newEdgeStyle={&quot;curved&quot;:0,&quot;rounded&quot;:0};" parent="1" vertex="1">
          <mxGeometry x="675" y="190" width="100" height="750" as="geometry" />
        </mxCell>
        <mxCell id="UFIIIXsz1D7t0Zp7uZU6-31" value="" style="html=1;points=[[0,0,0,0,5],[0,1,0,0,-5],[1,0,0,0,5],[1,1,0,0,-5]];perimeter=orthogonalPerimeter;outlineConnect=0;targetShapes=umlLifeline;portConstraint=eastwest;newEdgeStyle={&quot;curved&quot;:0,&quot;rounded&quot;:0};" parent="UFIIIXsz1D7t0Zp7uZU6-5" vertex="1">
          <mxGeometry x="45" y="200" width="10" height="30" as="geometry" />
        </mxCell>
        <mxCell id="UFIIIXsz1D7t0Zp7uZU6-55" value="" style="html=1;points=[[0,0,0,0,5],[0,1,0,0,-5],[1,0,0,0,5],[1,1,0,0,-5]];perimeter=orthogonalPerimeter;outlineConnect=0;targetShapes=umlLifeline;portConstraint=eastwest;newEdgeStyle={&quot;curved&quot;:0,&quot;rounded&quot;:0};" parent="UFIIIXsz1D7t0Zp7uZU6-5" vertex="1">
          <mxGeometry x="45" y="450" width="10" height="40" as="geometry" />
        </mxCell>
        <mxCell id="UFIIIXsz1D7t0Zp7uZU6-67" value="" style="html=1;points=[[0,0,0,0,5],[0,1,0,0,-5],[1,0,0,0,5],[1,1,0,0,-5]];perimeter=orthogonalPerimeter;outlineConnect=0;targetShapes=umlLifeline;portConstraint=eastwest;newEdgeStyle={&quot;curved&quot;:0,&quot;rounded&quot;:0};" parent="UFIIIXsz1D7t0Zp7uZU6-5" vertex="1">
          <mxGeometry x="45" y="380" width="10" height="30" as="geometry" />
        </mxCell>
        <mxCell id="UFIIIXsz1D7t0Zp7uZU6-7" value="SECUENCIA DE RETIRO DE DINERO" style="text;align=center;fontStyle=1;verticalAlign=middle;spacingLeft=3;spacingRight=3;strokeColor=none;rotatable=0;points=[[0,0.5],[1,0.5]];portConstraint=eastwest;html=1;fontSize=26;" parent="1" vertex="1">
          <mxGeometry x="295" y="70" width="200" height="96" as="geometry" />
        </mxCell>
        <mxCell id="UFIIIXsz1D7t0Zp7uZU6-9" value="Insertar Tarjeta" style="html=1;verticalAlign=bottom;startArrow=oval;startFill=1;endArrow=block;startSize=8;curved=0;rounded=0;" parent="1" source="UFIIIXsz1D7t0Zp7uZU6-2" target="UFIIIXsz1D7t0Zp7uZU6-3" edge="1">
          <mxGeometry width="60" relative="1" as="geometry">
            <mxPoint x="235" y="350" as="sourcePoint" />
            <mxPoint x="295" y="350" as="targetPoint" />
            <Array as="points">
              <mxPoint x="175" y="270" />
            </Array>
          </mxGeometry>
        </mxCell>
        <mxCell id="UFIIIXsz1D7t0Zp7uZU6-11" value="validacion de tarjeta" style="html=1;verticalAlign=bottom;startArrow=oval;startFill=1;endArrow=block;startSize=8;curved=0;rounded=0;" parent="1" source="UFIIIXsz1D7t0Zp7uZU6-10" target="UFIIIXsz1D7t0Zp7uZU6-4" edge="1">
          <mxGeometry width="60" relative="1" as="geometry">
            <mxPoint x="385" y="340" as="sourcePoint" />
            <mxPoint x="445" y="340" as="targetPoint" />
            <Array as="points">
              <mxPoint x="385" y="290" />
            </Array>
          </mxGeometry>
        </mxCell>
        <mxCell id="UFIIIXsz1D7t0Zp7uZU6-14" value="tarjeta valida/invalida" style="html=1;verticalAlign=bottom;endArrow=open;dashed=1;endSize=8;curved=0;rounded=0;exitX=0;exitY=1;exitDx=0;exitDy=-5;exitPerimeter=0;" parent="1" source="UFIIIXsz1D7t0Zp7uZU6-12" target="UFIIIXsz1D7t0Zp7uZU6-3" edge="1">
          <mxGeometry relative="1" as="geometry">
            <mxPoint x="455" y="340" as="sourcePoint" />
            <mxPoint x="375" y="340" as="targetPoint" />
          </mxGeometry>
        </mxCell>
        <mxCell id="UFIIIXsz1D7t0Zp7uZU6-15" value="tarjeta invalida utilizada" style="html=1;verticalAlign=bottom;startArrow=oval;startFill=1;endArrow=block;startSize=8;curved=0;rounded=0;exitX=1;exitY=1;exitDx=0;exitDy=-5;exitPerimeter=0;" parent="1" source="UFIIIXsz1D7t0Zp7uZU6-12" target="UFIIIXsz1D7t0Zp7uZU6-5" edge="1">
          <mxGeometry width="60" relative="1" as="geometry">
            <mxPoint x="445" y="350" as="sourcePoint" />
            <mxPoint x="505" y="350" as="targetPoint" />
          </mxGeometry>
        </mxCell>
        <mxCell id="UFIIIXsz1D7t0Zp7uZU6-16" value="Tarjeta aceptada/rechazada" style="html=1;verticalAlign=bottom;endArrow=open;dashed=1;endSize=8;curved=0;rounded=0;" parent="1" source="UFIIIXsz1D7t0Zp7uZU6-10" target="UFIIIXsz1D7t0Zp7uZU6-2" edge="1">
          <mxGeometry x="0.024" relative="1" as="geometry">
            <mxPoint x="295" y="320" as="sourcePoint" />
            <mxPoint x="215" y="320" as="targetPoint" />
            <Array as="points">
              <mxPoint x="175" y="310" />
            </Array>
            <mxPoint as="offset" />
          </mxGeometry>
        </mxCell>
        <mxCell id="UFIIIXsz1D7t0Zp7uZU6-19" value="solicitud de pin para iniciar sesion" style="html=1;verticalAlign=bottom;startArrow=oval;startFill=1;endArrow=block;startSize=8;curved=0;rounded=0;" parent="1" source="UFIIIXsz1D7t0Zp7uZU6-4" target="UFIIIXsz1D7t0Zp7uZU6-3" edge="1">
          <mxGeometry width="60" relative="1" as="geometry">
            <mxPoint x="385" y="290" as="sourcePoint" />
            <mxPoint x="445" y="290" as="targetPoint" />
            <Array as="points">
              <mxPoint x="385" y="340" />
            </Array>
          </mxGeometry>
        </mxCell>
        <mxCell id="UFIIIXsz1D7t0Zp7uZU6-21" value="solicitar pin" style="html=1;verticalAlign=bottom;startArrow=oval;startFill=1;endArrow=block;startSize=8;curved=0;rounded=0;exitX=0;exitY=0;exitDx=0;exitDy=5;exitPerimeter=0;" parent="1" source="UFIIIXsz1D7t0Zp7uZU6-20" target="UFIIIXsz1D7t0Zp7uZU6-2" edge="1">
          <mxGeometry width="60" relative="1" as="geometry">
            <mxPoint x="265" y="300" as="sourcePoint" />
            <mxPoint x="325" y="300" as="targetPoint" />
          </mxGeometry>
        </mxCell>
        <mxCell id="UFIIIXsz1D7t0Zp7uZU6-23" value="Ingresar Pin" style="html=1;verticalAlign=bottom;endArrow=open;dashed=1;endSize=8;curved=0;rounded=0;exitX=1;exitY=1;exitDx=0;exitDy=-5;exitPerimeter=0;" parent="1" source="UFIIIXsz1D7t0Zp7uZU6-22" target="UFIIIXsz1D7t0Zp7uZU6-20" edge="1">
          <mxGeometry relative="1" as="geometry">
            <mxPoint x="355" y="360" as="sourcePoint" />
            <mxPoint x="275" y="360" as="targetPoint" />
          </mxGeometry>
        </mxCell>
        <mxCell id="UFIIIXsz1D7t0Zp7uZU6-24" value="verificacion de pin" style="html=1;verticalAlign=bottom;startArrow=oval;startFill=1;endArrow=block;startSize=8;curved=0;rounded=0;" parent="1" source="UFIIIXsz1D7t0Zp7uZU6-20" target="UFIIIXsz1D7t0Zp7uZU6-4" edge="1">
          <mxGeometry width="60" relative="1" as="geometry">
            <mxPoint x="375" y="360" as="sourcePoint" />
            <mxPoint x="435" y="360" as="targetPoint" />
            <Array as="points">
              <mxPoint x="355" y="370" />
            </Array>
          </mxGeometry>
        </mxCell>
        <mxCell id="UFIIIXsz1D7t0Zp7uZU6-26" value="pin valido/invalido" style="html=1;verticalAlign=bottom;endArrow=open;dashed=1;endSize=8;curved=0;rounded=0;" parent="1" source="UFIIIXsz1D7t0Zp7uZU6-4" target="UFIIIXsz1D7t0Zp7uZU6-3" edge="1">
          <mxGeometry relative="1" as="geometry">
            <mxPoint x="445" y="360" as="sourcePoint" />
            <mxPoint x="365" y="360" as="targetPoint" />
            <Array as="points">
              <mxPoint x="435" y="390" />
            </Array>
          </mxGeometry>
        </mxCell>
        <mxCell id="UFIIIXsz1D7t0Zp7uZU6-27" value="pin valido/invalido" style="html=1;verticalAlign=bottom;endArrow=open;dashed=1;endSize=8;curved=0;rounded=0;" parent="1" source="UFIIIXsz1D7t0Zp7uZU6-20" target="UFIIIXsz1D7t0Zp7uZU6-2" edge="1">
          <mxGeometry relative="1" as="geometry">
            <mxPoint x="255" y="390" as="sourcePoint" />
            <mxPoint x="365" y="360" as="targetPoint" />
            <Array as="points">
              <mxPoint x="175" y="390" />
            </Array>
          </mxGeometry>
        </mxCell>
        <mxCell id="UFIIIXsz1D7t0Zp7uZU6-30" value="notifica al banco/invalida tarjeta&lt;div&gt;por 3er intento&lt;/div&gt;" style="html=1;verticalAlign=bottom;startArrow=oval;startFill=1;endArrow=block;startSize=8;curved=0;rounded=0;" parent="1" source="UFIIIXsz1D7t0Zp7uZU6-4" target="UFIIIXsz1D7t0Zp7uZU6-5" edge="1">
          <mxGeometry width="60" relative="1" as="geometry">
            <mxPoint x="535" y="380" as="sourcePoint" />
            <mxPoint x="595" y="380" as="targetPoint" />
            <Array as="points">
              <mxPoint x="605" y="390" />
            </Array>
          </mxGeometry>
        </mxCell>
        <mxCell id="UFIIIXsz1D7t0Zp7uZU6-32" value="invalida la tarjeta" style="html=1;verticalAlign=bottom;endArrow=open;dashed=1;endSize=8;curved=0;rounded=0;" parent="1" source="UFIIIXsz1D7t0Zp7uZU6-5" target="UFIIIXsz1D7t0Zp7uZU6-3" edge="1">
          <mxGeometry x="0.5093" relative="1" as="geometry">
            <mxPoint x="515" y="420" as="sourcePoint" />
            <mxPoint x="495" y="420" as="targetPoint" />
            <Array as="points">
              <mxPoint x="495" y="420" />
            </Array>
            <mxPoint as="offset" />
          </mxGeometry>
        </mxCell>
        <mxCell id="UFIIIXsz1D7t0Zp7uZU6-33" value="notifica el bloqueo de la tarjeta" style="html=1;verticalAlign=bottom;endArrow=open;dashed=1;endSize=8;curved=0;rounded=0;" parent="1" source="UFIIIXsz1D7t0Zp7uZU6-20" target="UFIIIXsz1D7t0Zp7uZU6-2" edge="1">
          <mxGeometry relative="1" as="geometry">
            <mxPoint x="465" y="340" as="sourcePoint" />
            <mxPoint x="385" y="340" as="targetPoint" />
            <Array as="points">
              <mxPoint x="175" y="420" />
            </Array>
          </mxGeometry>
        </mxCell>
        <mxCell id="UFIIIXsz1D7t0Zp7uZU6-35" value="inicia sesion/solicita operacion" style="html=1;verticalAlign=bottom;startArrow=oval;startFill=1;endArrow=block;startSize=8;curved=0;rounded=0;exitX=0;exitY=0;exitDx=0;exitDy=5;exitPerimeter=0;" parent="1" source="UFIIIXsz1D7t0Zp7uZU6-34" target="UFIIIXsz1D7t0Zp7uZU6-2" edge="1">
          <mxGeometry width="60" relative="1" as="geometry">
            <mxPoint x="295" y="420" as="sourcePoint" />
            <mxPoint x="355" y="420" as="targetPoint" />
          </mxGeometry>
        </mxCell>
        <mxCell id="UFIIIXsz1D7t0Zp7uZU6-36" value="retirar dinero" style="html=1;verticalAlign=bottom;endArrow=open;dashed=1;endSize=8;curved=0;rounded=0;" parent="1" source="UFIIIXsz1D7t0Zp7uZU6-2" target="UFIIIXsz1D7t0Zp7uZU6-34" edge="1">
          <mxGeometry relative="1" as="geometry">
            <mxPoint x="395" y="410" as="sourcePoint" />
            <mxPoint x="315" y="410" as="targetPoint" />
            <Array as="points">
              <mxPoint x="175" y="490" />
            </Array>
          </mxGeometry>
        </mxCell>
        <mxCell id="UFIIIXsz1D7t0Zp7uZU6-37" value="solicitar retiro de dinero" style="html=1;verticalAlign=bottom;startArrow=oval;startFill=1;endArrow=block;startSize=8;curved=0;rounded=0;" parent="1" source="UFIIIXsz1D7t0Zp7uZU6-3" target="UFIIIXsz1D7t0Zp7uZU6-4" edge="1">
          <mxGeometry width="60" relative="1" as="geometry">
            <mxPoint x="435" y="420" as="sourcePoint" />
            <mxPoint x="495" y="420" as="targetPoint" />
            <Array as="points">
              <mxPoint x="385" y="490" />
            </Array>
          </mxGeometry>
        </mxCell>
        <mxCell id="UFIIIXsz1D7t0Zp7uZU6-42" value="cantidad requerida" style="html=1;verticalAlign=bottom;startArrow=oval;startFill=1;endArrow=block;startSize=8;curved=0;rounded=0;" parent="1" source="UFIIIXsz1D7t0Zp7uZU6-4" target="UFIIIXsz1D7t0Zp7uZU6-3" edge="1">
          <mxGeometry width="60" relative="1" as="geometry">
            <mxPoint x="365" y="440" as="sourcePoint" />
            <mxPoint x="425" y="440" as="targetPoint" />
            <Array as="points">
              <mxPoint x="375" y="510" />
            </Array>
          </mxGeometry>
        </mxCell>
        <mxCell id="UFIIIXsz1D7t0Zp7uZU6-44" value="digitar cantidad" style="html=1;verticalAlign=bottom;startArrow=oval;startFill=1;endArrow=block;startSize=8;curved=0;rounded=0;" parent="1" source="UFIIIXsz1D7t0Zp7uZU6-43" target="UFIIIXsz1D7t0Zp7uZU6-2" edge="1">
          <mxGeometry width="60" relative="1" as="geometry">
            <mxPoint x="325" y="460" as="sourcePoint" />
            <mxPoint x="385" y="460" as="targetPoint" />
            <Array as="points">
              <mxPoint x="175" y="520" />
            </Array>
          </mxGeometry>
        </mxCell>
        <mxCell id="UFIIIXsz1D7t0Zp7uZU6-46" value="cantidad digitada" style="html=1;verticalAlign=bottom;endArrow=open;dashed=1;endSize=8;curved=0;rounded=0;exitX=1;exitY=1;exitDx=0;exitDy=-5;exitPerimeter=0;" parent="1" source="UFIIIXsz1D7t0Zp7uZU6-45" target="UFIIIXsz1D7t0Zp7uZU6-43" edge="1">
          <mxGeometry relative="1" as="geometry">
            <mxPoint x="395" y="460" as="sourcePoint" />
            <mxPoint x="315" y="460" as="targetPoint" />
          </mxGeometry>
        </mxCell>
        <mxCell id="UFIIIXsz1D7t0Zp7uZU6-47" value="verificar cantidad" style="html=1;verticalAlign=bottom;endArrow=open;dashed=1;endSize=8;curved=0;rounded=0;" parent="1" source="UFIIIXsz1D7t0Zp7uZU6-3" target="UFIIIXsz1D7t0Zp7uZU6-38" edge="1">
          <mxGeometry relative="1" as="geometry">
            <mxPoint x="445" y="470" as="sourcePoint" />
            <mxPoint x="365" y="470" as="targetPoint" />
            <Array as="points">
              <mxPoint x="385" y="560" />
            </Array>
          </mxGeometry>
        </mxCell>
        <mxCell id="UFIIIXsz1D7t0Zp7uZU6-48" value="cantidad valida/&amp;nbsp;&lt;div&gt;fondos insuficientes en cuenta o cajero/&lt;div&gt;limite diario alcanzado&lt;/div&gt;&lt;/div&gt;" style="html=1;verticalAlign=bottom;endArrow=open;dashed=1;endSize=8;curved=0;rounded=0;" parent="1" source="UFIIIXsz1D7t0Zp7uZU6-4" target="UFIIIXsz1D7t0Zp7uZU6-3" edge="1">
          <mxGeometry x="-0.001" relative="1" as="geometry">
            <mxPoint x="445" y="520" as="sourcePoint" />
            <mxPoint x="365" y="520" as="targetPoint" />
            <Array as="points">
              <mxPoint x="395" y="610" />
            </Array>
            <mxPoint as="offset" />
          </mxGeometry>
        </mxCell>
        <mxCell id="UFIIIXsz1D7t0Zp7uZU6-49" value="cantidad valida/&lt;div&gt;fondos insuficientes en cuenta o&lt;/div&gt;&lt;div&gt;&lt;span style=&quot;background-color: light-dark(#ffffff, var(--ge-dark-color, #121212)); color: light-dark(rgb(0, 0, 0), rgb(255, 255, 255));&quot;&gt;banco/&lt;/span&gt;&lt;div&gt;&lt;div&gt;limite diario alcanzado&lt;/div&gt;&lt;/div&gt;&lt;/div&gt;" style="html=1;verticalAlign=bottom;endArrow=open;dashed=1;endSize=8;curved=0;rounded=0;" parent="1" source="UFIIIXsz1D7t0Zp7uZU6-3" target="UFIIIXsz1D7t0Zp7uZU6-2" edge="1">
          <mxGeometry relative="1" as="geometry">
            <mxPoint x="325" y="550" as="sourcePoint" />
            <mxPoint x="245" y="550" as="targetPoint" />
            <Array as="points">
              <mxPoint x="185" y="610" />
            </Array>
          </mxGeometry>
        </mxCell>
        <mxCell id="UFIIIXsz1D7t0Zp7uZU6-52" value="efectuar Operacion" style="html=1;verticalAlign=bottom;startArrow=oval;startFill=1;endArrow=block;startSize=8;curved=0;rounded=0;" parent="1" source="UFIIIXsz1D7t0Zp7uZU6-3" target="UFIIIXsz1D7t0Zp7uZU6-4" edge="1">
          <mxGeometry width="60" relative="1" as="geometry">
            <mxPoint x="365" y="650" as="sourcePoint" />
            <mxPoint x="425" y="650" as="targetPoint" />
            <Array as="points">
              <mxPoint x="395" y="640" />
            </Array>
          </mxGeometry>
        </mxCell>
        <mxCell id="UFIIIXsz1D7t0Zp7uZU6-54" value="registrar movimiento de dinero" style="html=1;verticalAlign=bottom;startArrow=oval;startFill=1;endArrow=block;startSize=8;curved=0;rounded=0;exitX=1;exitY=0;exitDx=0;exitDy=5;exitPerimeter=0;" parent="1" source="UFIIIXsz1D7t0Zp7uZU6-53" target="UFIIIXsz1D7t0Zp7uZU6-5" edge="1">
          <mxGeometry width="60" relative="1" as="geometry">
            <mxPoint x="525" y="770" as="sourcePoint" />
            <mxPoint x="585" y="770" as="targetPoint" />
          </mxGeometry>
        </mxCell>
        <mxCell id="UFIIIXsz1D7t0Zp7uZU6-56" value="movimiento si/no registrado" style="html=1;verticalAlign=bottom;endArrow=open;dashed=1;endSize=8;curved=0;rounded=0;" parent="1" source="UFIIIXsz1D7t0Zp7uZU6-5" target="UFIIIXsz1D7t0Zp7uZU6-53" edge="1">
          <mxGeometry relative="1" as="geometry">
            <mxPoint x="605" y="620" as="sourcePoint" />
            <mxPoint x="525" y="620" as="targetPoint" />
            <Array as="points">
              <mxPoint x="635" y="680" />
            </Array>
          </mxGeometry>
        </mxCell>
        <mxCell id="UFIIIXsz1D7t0Zp7uZU6-58" value="operacion si/no efectuada" style="html=1;verticalAlign=bottom;endArrow=open;dashed=1;endSize=8;curved=0;rounded=0;exitX=0;exitY=1;exitDx=0;exitDy=-5;exitPerimeter=0;" parent="1" source="UFIIIXsz1D7t0Zp7uZU6-53" target="UFIIIXsz1D7t0Zp7uZU6-3" edge="1">
          <mxGeometry relative="1" as="geometry">
            <mxPoint x="405" y="620" as="sourcePoint" />
            <mxPoint x="325" y="620" as="targetPoint" />
          </mxGeometry>
        </mxCell>
        <mxCell id="UFIIIXsz1D7t0Zp7uZU6-59" value="devolver dinero /&amp;nbsp;&lt;div&gt;operacion no&lt;span style=&quot;background-color: light-dark(#ffffff, var(--ge-dark-color, #121212)); color: light-dark(rgb(0, 0, 0), rgb(255, 255, 255));&quot;&gt;realizada&lt;/span&gt;&lt;/div&gt;" style="html=1;verticalAlign=bottom;endArrow=open;dashed=1;endSize=8;curved=0;rounded=0;" parent="1" source="UFIIIXsz1D7t0Zp7uZU6-3" target="UFIIIXsz1D7t0Zp7uZU6-2" edge="1">
          <mxGeometry relative="1" as="geometry">
            <mxPoint x="285" y="630" as="sourcePoint" />
            <mxPoint x="205" y="630" as="targetPoint" />
            <Array as="points">
              <mxPoint x="185" y="700" />
            </Array>
          </mxGeometry>
        </mxCell>
        <mxCell id="UFIIIXsz1D7t0Zp7uZU6-61" value="solicitud de recibo" style="html=1;verticalAlign=bottom;startArrow=oval;startFill=1;endArrow=block;startSize=8;curved=0;rounded=0;" parent="1" source="UFIIIXsz1D7t0Zp7uZU6-10" target="UFIIIXsz1D7t0Zp7uZU6-2" edge="1">
          <mxGeometry width="60" relative="1" as="geometry">
            <mxPoint x="265" y="729.9999999999998" as="sourcePoint" />
            <mxPoint x="245" y="670" as="targetPoint" />
            <Array as="points">
              <mxPoint x="175" y="730" />
            </Array>
          </mxGeometry>
        </mxCell>
        <mxCell id="UFIIIXsz1D7t0Zp7uZU6-63" value="si/no" style="html=1;verticalAlign=bottom;endArrow=open;dashed=1;endSize=8;curved=0;rounded=0;exitX=1;exitY=1;exitDx=0;exitDy=-5;exitPerimeter=0;" parent="1" source="UFIIIXsz1D7t0Zp7uZU6-62" target="UFIIIXsz1D7t0Zp7uZU6-3" edge="1">
          <mxGeometry relative="1" as="geometry">
            <mxPoint x="275" y="750" as="sourcePoint" />
            <mxPoint x="195" y="750" as="targetPoint" />
          </mxGeometry>
        </mxCell>
        <mxCell id="UFIIIXsz1D7t0Zp7uZU6-65" value="solicitar y registrar recibo" style="html=1;verticalAlign=bottom;startArrow=oval;startFill=1;endArrow=block;startSize=8;curved=0;rounded=0;" parent="1" target="UFIIIXsz1D7t0Zp7uZU6-64" edge="1">
          <mxGeometry width="60" relative="1" as="geometry">
            <mxPoint x="275" y="760" as="sourcePoint" />
            <mxPoint x="335" y="760" as="targetPoint" />
          </mxGeometry>
        </mxCell>
        <mxCell id="UFIIIXsz1D7t0Zp7uZU6-66" value="Notificar de falta de dinero en el cajero" style="html=1;verticalAlign=bottom;startArrow=oval;startFill=1;endArrow=block;startSize=8;curved=0;rounded=0;" parent="1" source="UFIIIXsz1D7t0Zp7uZU6-51" target="UFIIIXsz1D7t0Zp7uZU6-5" edge="1">
          <mxGeometry width="60" relative="1" as="geometry">
            <mxPoint x="475" y="570" as="sourcePoint" />
            <mxPoint x="535" y="570" as="targetPoint" />
            <Array as="points">
              <mxPoint x="605" y="570" />
            </Array>
          </mxGeometry>
        </mxCell>
        <mxCell id="UFIIIXsz1D7t0Zp7uZU6-68" value="Notificar visita servicio tecnico" style="html=1;verticalAlign=bottom;endArrow=open;dashed=1;endSize=8;curved=0;rounded=0;" parent="1" source="UFIIIXsz1D7t0Zp7uZU6-5" target="UFIIIXsz1D7t0Zp7uZU6-4" edge="1">
          <mxGeometry relative="1" as="geometry">
            <mxPoint x="675" y="600" as="sourcePoint" />
            <mxPoint x="595" y="600" as="targetPoint" />
            <Array as="points">
              <mxPoint x="605" y="600" />
            </Array>
          </mxGeometry>
        </mxCell>
        <mxCell id="UFIIIXsz1D7t0Zp7uZU6-69" value="devolver informacion de operacion" style="html=1;verticalAlign=bottom;endArrow=open;dashed=1;endSize=8;curved=0;rounded=0;" parent="1" source="UFIIIXsz1D7t0Zp7uZU6-4" target="UFIIIXsz1D7t0Zp7uZU6-10" edge="1">
          <mxGeometry relative="1" as="geometry">
            <mxPoint x="435" y="840" as="sourcePoint" />
            <mxPoint x="355" y="840" as="targetPoint" />
            <Array as="points">
              <mxPoint x="385" y="840" />
            </Array>
          </mxGeometry>
        </mxCell>
        <mxCell id="UFIIIXsz1D7t0Zp7uZU6-71" value="imprimir/mostrar recibo" style="html=1;verticalAlign=bottom;endArrow=open;dashed=1;endSize=8;curved=0;rounded=0;" parent="1" source="UFIIIXsz1D7t0Zp7uZU6-10" target="UFIIIXsz1D7t0Zp7uZU6-2" edge="1">
          <mxGeometry relative="1" as="geometry">
            <mxPoint x="245" y="850" as="sourcePoint" />
            <mxPoint x="165" y="850" as="targetPoint" />
            <Array as="points">
              <mxPoint x="205" y="840" />
            </Array>
          </mxGeometry>
        </mxCell>
        <mxCell id="UFIIIXsz1D7t0Zp7uZU6-72" value="retirar tarjeta" style="html=1;verticalAlign=bottom;endArrow=open;dashed=1;endSize=8;curved=0;rounded=0;" parent="1" source="UFIIIXsz1D7t0Zp7uZU6-3" target="UFIIIXsz1D7t0Zp7uZU6-2" edge="1">
          <mxGeometry relative="1" as="geometry">
            <mxPoint x="215" y="830" as="sourcePoint" />
            <mxPoint x="135" y="830" as="targetPoint" />
            <Array as="points">
              <mxPoint x="205" y="890" />
            </Array>
          </mxGeometry>
        </mxCell>
        <mxCell id="UFIIIXsz1D7t0Zp7uZU6-131" value="" style="shape=umlLifeline;perimeter=lifelinePerimeter;whiteSpace=wrap;html=1;container=1;dropTarget=0;collapsible=0;recursiveResize=0;outlineConnect=0;portConstraint=eastwest;newEdgeStyle={&quot;curved&quot;:0,&quot;rounded&quot;:0};participant=umlActor;" parent="1" vertex="1">
          <mxGeometry x="940" y="190" width="20" height="750" as="geometry" />
        </mxCell>
        <mxCell id="UFIIIXsz1D7t0Zp7uZU6-132" value="" style="html=1;points=[[0,0,0,0,5],[0,1,0,0,-5],[1,0,0,0,5],[1,1,0,0,-5]];perimeter=orthogonalPerimeter;outlineConnect=0;targetShapes=umlLifeline;portConstraint=eastwest;newEdgeStyle={&quot;curved&quot;:0,&quot;rounded&quot;:0};" parent="UFIIIXsz1D7t0Zp7uZU6-131" vertex="1">
          <mxGeometry x="5" y="150" width="10" height="30" as="geometry" />
        </mxCell>
        <mxCell id="UFIIIXsz1D7t0Zp7uZU6-133" value="" style="html=1;points=[[0,0,0,0,5],[0,1,0,0,-5],[1,0,0,0,5],[1,1,0,0,-5]];perimeter=orthogonalPerimeter;outlineConnect=0;targetShapes=umlLifeline;portConstraint=eastwest;newEdgeStyle={&quot;curved&quot;:0,&quot;rounded&quot;:0};" parent="UFIIIXsz1D7t0Zp7uZU6-131" vertex="1">
          <mxGeometry x="5" y="260" width="10" height="40" as="geometry" />
        </mxCell>
        <mxCell id="UFIIIXsz1D7t0Zp7uZU6-134" value="" style="html=1;points=[[0,0,0,0,5],[0,1,0,0,-5],[1,0,0,0,5],[1,1,0,0,-5]];perimeter=orthogonalPerimeter;outlineConnect=0;targetShapes=umlLifeline;portConstraint=eastwest;newEdgeStyle={&quot;curved&quot;:0,&quot;rounded&quot;:0};" parent="UFIIIXsz1D7t0Zp7uZU6-131" vertex="1">
          <mxGeometry x="5" y="330" width="10" height="30" as="geometry" />
        </mxCell>
        <mxCell id="UFIIIXsz1D7t0Zp7uZU6-135" value="" style="html=1;points=[[0,0,0,0,5],[0,1,0,0,-5],[1,0,0,0,5],[1,1,0,0,-5]];perimeter=orthogonalPerimeter;outlineConnect=0;targetShapes=umlLifeline;portConstraint=eastwest;newEdgeStyle={&quot;curved&quot;:0,&quot;rounded&quot;:0};" parent="UFIIIXsz1D7t0Zp7uZU6-131" vertex="1">
          <mxGeometry x="5" y="540" width="10" height="30" as="geometry" />
        </mxCell>
        <mxCell id="UFIIIXsz1D7t0Zp7uZU6-253" value="" style="html=1;points=[[0,0,0,0,5],[0,1,0,0,-5],[1,0,0,0,5],[1,1,0,0,-5]];perimeter=orthogonalPerimeter;outlineConnect=0;targetShapes=umlLifeline;portConstraint=eastwest;newEdgeStyle={&quot;curved&quot;:0,&quot;rounded&quot;:0};" parent="UFIIIXsz1D7t0Zp7uZU6-131" vertex="1">
          <mxGeometry x="5" y="390" width="10" height="40" as="geometry" />
        </mxCell>
        <mxCell id="UFIIIXsz1D7t0Zp7uZU6-136" value="Cajero" style="shape=umlLifeline;perimeter=lifelinePerimeter;whiteSpace=wrap;html=1;container=1;dropTarget=0;collapsible=0;recursiveResize=0;outlineConnect=0;portConstraint=eastwest;newEdgeStyle={&quot;curved&quot;:0,&quot;rounded&quot;:0};" parent="1" vertex="1">
          <mxGeometry x="1090" y="190" width="100" height="750" as="geometry" />
        </mxCell>
        <mxCell id="UFIIIXsz1D7t0Zp7uZU6-137" value="" style="html=1;points=[[0,0,0,0,5],[0,1,0,0,-5],[1,0,0,0,5],[1,1,0,0,-5]];perimeter=orthogonalPerimeter;outlineConnect=0;targetShapes=umlLifeline;portConstraint=eastwest;newEdgeStyle={&quot;curved&quot;:0,&quot;rounded&quot;:0};" parent="UFIIIXsz1D7t0Zp7uZU6-136" vertex="1">
          <mxGeometry x="45" y="80" width="10" height="620" as="geometry" />
        </mxCell>
        <mxCell id="UFIIIXsz1D7t0Zp7uZU6-138" value="" style="html=1;points=[[0,0,0,0,5],[0,1,0,0,-5],[1,0,0,0,5],[1,1,0,0,-5]];perimeter=orthogonalPerimeter;outlineConnect=0;targetShapes=umlLifeline;portConstraint=eastwest;newEdgeStyle={&quot;curved&quot;:0,&quot;rounded&quot;:0};" parent="UFIIIXsz1D7t0Zp7uZU6-136" vertex="1">
          <mxGeometry x="50" y="80" width="10" height="40" as="geometry" />
        </mxCell>
        <mxCell id="UFIIIXsz1D7t0Zp7uZU6-139" value="" style="html=1;points=[[0,0,0,0,5],[0,1,0,0,-5],[1,0,0,0,5],[1,1,0,0,-5]];perimeter=orthogonalPerimeter;outlineConnect=0;targetShapes=umlLifeline;portConstraint=eastwest;newEdgeStyle={&quot;curved&quot;:0,&quot;rounded&quot;:0};" parent="UFIIIXsz1D7t0Zp7uZU6-136" vertex="1">
          <mxGeometry x="40" y="150" width="10" height="80" as="geometry" />
        </mxCell>
        <mxCell id="UFIIIXsz1D7t0Zp7uZU6-140" value="" style="html=1;points=[[0,0,0,0,5],[0,1,0,0,-5],[1,0,0,0,5],[1,1,0,0,-5]];perimeter=orthogonalPerimeter;outlineConnect=0;targetShapes=umlLifeline;portConstraint=eastwest;newEdgeStyle={&quot;curved&quot;:0,&quot;rounded&quot;:0};" parent="UFIIIXsz1D7t0Zp7uZU6-136" vertex="1">
          <mxGeometry x="50" y="260" width="10" height="40" as="geometry" />
        </mxCell>
        <mxCell id="UFIIIXsz1D7t0Zp7uZU6-141" value="" style="html=1;points=[[0,0,0,0,5],[0,1,0,0,-5],[1,0,0,0,5],[1,1,0,0,-5]];perimeter=orthogonalPerimeter;outlineConnect=0;targetShapes=umlLifeline;portConstraint=eastwest;newEdgeStyle={&quot;curved&quot;:0,&quot;rounded&quot;:0};" parent="UFIIIXsz1D7t0Zp7uZU6-136" vertex="1">
          <mxGeometry x="40" y="320" width="10" height="170" as="geometry" />
        </mxCell>
        <mxCell id="UFIIIXsz1D7t0Zp7uZU6-142" value="Cuenta" style="shape=umlLifeline;perimeter=lifelinePerimeter;whiteSpace=wrap;html=1;container=1;dropTarget=0;collapsible=0;recursiveResize=0;outlineConnect=0;portConstraint=eastwest;newEdgeStyle={&quot;curved&quot;:0,&quot;rounded&quot;:0};" parent="1" vertex="1">
          <mxGeometry x="1310" y="190" width="100" height="750" as="geometry" />
        </mxCell>
        <mxCell id="UFIIIXsz1D7t0Zp7uZU6-143" value="" style="html=1;points=[[0,0,0,0,5],[0,1,0,0,-5],[1,0,0,0,5],[1,1,0,0,-5]];perimeter=orthogonalPerimeter;outlineConnect=0;targetShapes=umlLifeline;portConstraint=eastwest;newEdgeStyle={&quot;curved&quot;:0,&quot;rounded&quot;:0};" parent="UFIIIXsz1D7t0Zp7uZU6-142" vertex="1">
          <mxGeometry x="45" y="100" width="10" height="20" as="geometry" />
        </mxCell>
        <mxCell id="UFIIIXsz1D7t0Zp7uZU6-144" value="" style="html=1;points=[[0,0,0,0,5],[0,1,0,0,-5],[1,0,0,0,5],[1,1,0,0,-5]];perimeter=orthogonalPerimeter;outlineConnect=0;targetShapes=umlLifeline;portConstraint=eastwest;newEdgeStyle={&quot;curved&quot;:0,&quot;rounded&quot;:0};" parent="UFIIIXsz1D7t0Zp7uZU6-142" vertex="1">
          <mxGeometry x="45" y="180" width="10" height="20" as="geometry" />
        </mxCell>
        <mxCell id="UFIIIXsz1D7t0Zp7uZU6-145" value="" style="html=1;points=[[0,0,0,0,5],[0,1,0,0,-5],[1,0,0,0,5],[1,1,0,0,-5]];perimeter=orthogonalPerimeter;outlineConnect=0;targetShapes=umlLifeline;portConstraint=eastwest;newEdgeStyle={&quot;curved&quot;:0,&quot;rounded&quot;:0};" parent="UFIIIXsz1D7t0Zp7uZU6-142" vertex="1">
          <mxGeometry x="45" y="300" width="10" height="400" as="geometry" />
        </mxCell>
        <mxCell id="UFIIIXsz1D7t0Zp7uZU6-148" value="" style="html=1;points=[[0,0,0,0,5],[0,1,0,0,-5],[1,0,0,0,5],[1,1,0,0,-5]];perimeter=orthogonalPerimeter;outlineConnect=0;targetShapes=umlLifeline;portConstraint=eastwest;newEdgeStyle={&quot;curved&quot;:0,&quot;rounded&quot;:0};" parent="UFIIIXsz1D7t0Zp7uZU6-142" vertex="1">
          <mxGeometry x="40" y="570" width="10" height="80" as="geometry" />
        </mxCell>
        <mxCell id="UFIIIXsz1D7t0Zp7uZU6-255" value="" style="html=1;points=[[0,0,0,0,5],[0,1,0,0,-5],[1,0,0,0,5],[1,1,0,0,-5]];perimeter=orthogonalPerimeter;outlineConnect=0;targetShapes=umlLifeline;portConstraint=eastwest;newEdgeStyle={&quot;curved&quot;:0,&quot;rounded&quot;:0};" parent="UFIIIXsz1D7t0Zp7uZU6-142" vertex="1">
          <mxGeometry x="40" y="402" width="10" height="38" as="geometry" />
        </mxCell>
        <mxCell id="UFIIIXsz1D7t0Zp7uZU6-258" value="" style="html=1;points=[[0,0,0,0,5],[0,1,0,0,-5],[1,0,0,0,5],[1,1,0,0,-5]];perimeter=orthogonalPerimeter;outlineConnect=0;targetShapes=umlLifeline;portConstraint=eastwest;newEdgeStyle={&quot;curved&quot;:0,&quot;rounded&quot;:0};" parent="UFIIIXsz1D7t0Zp7uZU6-142" vertex="1">
          <mxGeometry x="40" y="472" width="10" height="80" as="geometry" />
        </mxCell>
        <mxCell id="UFIIIXsz1D7t0Zp7uZU6-249" value="efectuar operacion" style="html=1;verticalAlign=bottom;endArrow=open;dashed=1;endSize=8;curved=0;rounded=0;" parent="UFIIIXsz1D7t0Zp7uZU6-142" source="UFIIIXsz1D7t0Zp7uZU6-258" target="UFIIIXsz1D7t0Zp7uZU6-145" edge="1">
          <mxGeometry y="109" relative="1" as="geometry">
            <mxPoint x="10" y="452" as="sourcePoint" />
            <mxPoint x="-70" y="452" as="targetPoint" />
            <Array as="points" />
            <mxPoint x="-105" y="-30" as="offset" />
          </mxGeometry>
        </mxCell>
        <mxCell id="UFIIIXsz1D7t0Zp7uZU6-149" value="Banco" style="shape=umlLifeline;perimeter=lifelinePerimeter;whiteSpace=wrap;html=1;container=1;dropTarget=0;collapsible=0;recursiveResize=0;outlineConnect=0;portConstraint=eastwest;newEdgeStyle={&quot;curved&quot;:0,&quot;rounded&quot;:0};" parent="1" vertex="1">
          <mxGeometry x="1540" y="190" width="100" height="750" as="geometry" />
        </mxCell>
        <mxCell id="UFIIIXsz1D7t0Zp7uZU6-150" value="" style="html=1;points=[[0,0,0,0,5],[0,1,0,0,-5],[1,0,0,0,5],[1,1,0,0,-5]];perimeter=orthogonalPerimeter;outlineConnect=0;targetShapes=umlLifeline;portConstraint=eastwest;newEdgeStyle={&quot;curved&quot;:0,&quot;rounded&quot;:0};" parent="UFIIIXsz1D7t0Zp7uZU6-149" vertex="1">
          <mxGeometry x="45" y="200" width="10" height="30" as="geometry" />
        </mxCell>
        <mxCell id="UFIIIXsz1D7t0Zp7uZU6-153" value="SECUENCIA DE DEPOSITO DE DINERO" style="text;align=center;fontStyle=1;verticalAlign=middle;spacingLeft=3;spacingRight=3;strokeColor=none;rotatable=0;points=[[0,0.5],[1,0.5]];portConstraint=eastwest;html=1;fontSize=26;" parent="1" vertex="1">
          <mxGeometry x="1160" y="70" width="200" height="96" as="geometry" />
        </mxCell>
        <mxCell id="UFIIIXsz1D7t0Zp7uZU6-154" value="Insertar Tarjeta" style="html=1;verticalAlign=bottom;startArrow=oval;startFill=1;endArrow=block;startSize=8;curved=0;rounded=0;" parent="1" source="UFIIIXsz1D7t0Zp7uZU6-131" target="UFIIIXsz1D7t0Zp7uZU6-136" edge="1">
          <mxGeometry width="60" relative="1" as="geometry">
            <mxPoint x="1100" y="350" as="sourcePoint" />
            <mxPoint x="1160" y="350" as="targetPoint" />
            <Array as="points">
              <mxPoint x="1040" y="270" />
            </Array>
          </mxGeometry>
        </mxCell>
        <mxCell id="UFIIIXsz1D7t0Zp7uZU6-155" value="validacion de tarjeta" style="html=1;verticalAlign=bottom;startArrow=oval;startFill=1;endArrow=block;startSize=8;curved=0;rounded=0;" parent="1" source="UFIIIXsz1D7t0Zp7uZU6-137" target="UFIIIXsz1D7t0Zp7uZU6-142" edge="1">
          <mxGeometry width="60" relative="1" as="geometry">
            <mxPoint x="1250" y="340" as="sourcePoint" />
            <mxPoint x="1310" y="340" as="targetPoint" />
            <Array as="points">
              <mxPoint x="1250" y="290" />
            </Array>
          </mxGeometry>
        </mxCell>
        <mxCell id="UFIIIXsz1D7t0Zp7uZU6-156" value="tarjeta valida/invalida" style="html=1;verticalAlign=bottom;endArrow=open;dashed=1;endSize=8;curved=0;rounded=0;exitX=0;exitY=1;exitDx=0;exitDy=-5;exitPerimeter=0;" parent="1" source="UFIIIXsz1D7t0Zp7uZU6-143" target="UFIIIXsz1D7t0Zp7uZU6-136" edge="1">
          <mxGeometry relative="1" as="geometry">
            <mxPoint x="1320" y="340" as="sourcePoint" />
            <mxPoint x="1240" y="340" as="targetPoint" />
          </mxGeometry>
        </mxCell>
        <mxCell id="UFIIIXsz1D7t0Zp7uZU6-157" value="tarjeta invalida utilizada" style="html=1;verticalAlign=bottom;startArrow=oval;startFill=1;endArrow=block;startSize=8;curved=0;rounded=0;exitX=1;exitY=1;exitDx=0;exitDy=-5;exitPerimeter=0;" parent="1" source="UFIIIXsz1D7t0Zp7uZU6-143" target="UFIIIXsz1D7t0Zp7uZU6-149" edge="1">
          <mxGeometry width="60" relative="1" as="geometry">
            <mxPoint x="1310" y="350" as="sourcePoint" />
            <mxPoint x="1370" y="350" as="targetPoint" />
          </mxGeometry>
        </mxCell>
        <mxCell id="UFIIIXsz1D7t0Zp7uZU6-158" value="Tarjeta aceptada/rechazada" style="html=1;verticalAlign=bottom;endArrow=open;dashed=1;endSize=8;curved=0;rounded=0;" parent="1" source="UFIIIXsz1D7t0Zp7uZU6-137" target="UFIIIXsz1D7t0Zp7uZU6-131" edge="1">
          <mxGeometry x="0.024" relative="1" as="geometry">
            <mxPoint x="1160" y="320" as="sourcePoint" />
            <mxPoint x="1080" y="320" as="targetPoint" />
            <Array as="points">
              <mxPoint x="1040" y="310" />
            </Array>
            <mxPoint as="offset" />
          </mxGeometry>
        </mxCell>
        <mxCell id="UFIIIXsz1D7t0Zp7uZU6-159" value="solicitud de pin para iniciar sesion" style="html=1;verticalAlign=bottom;startArrow=oval;startFill=1;endArrow=block;startSize=8;curved=0;rounded=0;" parent="1" source="UFIIIXsz1D7t0Zp7uZU6-142" target="UFIIIXsz1D7t0Zp7uZU6-136" edge="1">
          <mxGeometry width="60" relative="1" as="geometry">
            <mxPoint x="1250" y="290" as="sourcePoint" />
            <mxPoint x="1310" y="290" as="targetPoint" />
            <Array as="points">
              <mxPoint x="1250" y="340" />
            </Array>
          </mxGeometry>
        </mxCell>
        <mxCell id="UFIIIXsz1D7t0Zp7uZU6-160" value="solicitar pin" style="html=1;verticalAlign=bottom;startArrow=oval;startFill=1;endArrow=block;startSize=8;curved=0;rounded=0;exitX=0;exitY=0;exitDx=0;exitDy=5;exitPerimeter=0;" parent="1" source="UFIIIXsz1D7t0Zp7uZU6-139" target="UFIIIXsz1D7t0Zp7uZU6-131" edge="1">
          <mxGeometry width="60" relative="1" as="geometry">
            <mxPoint x="1130" y="300" as="sourcePoint" />
            <mxPoint x="1190" y="300" as="targetPoint" />
          </mxGeometry>
        </mxCell>
        <mxCell id="UFIIIXsz1D7t0Zp7uZU6-161" value="Ingresar Pin" style="html=1;verticalAlign=bottom;endArrow=open;dashed=1;endSize=8;curved=0;rounded=0;exitX=1;exitY=1;exitDx=0;exitDy=-5;exitPerimeter=0;" parent="1" source="UFIIIXsz1D7t0Zp7uZU6-132" target="UFIIIXsz1D7t0Zp7uZU6-139" edge="1">
          <mxGeometry relative="1" as="geometry">
            <mxPoint x="1220" y="360" as="sourcePoint" />
            <mxPoint x="1140" y="360" as="targetPoint" />
          </mxGeometry>
        </mxCell>
        <mxCell id="UFIIIXsz1D7t0Zp7uZU6-162" value="verificacion de pin" style="html=1;verticalAlign=bottom;startArrow=oval;startFill=1;endArrow=block;startSize=8;curved=0;rounded=0;" parent="1" source="UFIIIXsz1D7t0Zp7uZU6-139" target="UFIIIXsz1D7t0Zp7uZU6-142" edge="1">
          <mxGeometry width="60" relative="1" as="geometry">
            <mxPoint x="1240" y="360" as="sourcePoint" />
            <mxPoint x="1300" y="360" as="targetPoint" />
            <Array as="points">
              <mxPoint x="1220" y="370" />
            </Array>
          </mxGeometry>
        </mxCell>
        <mxCell id="UFIIIXsz1D7t0Zp7uZU6-163" value="pin valido/invalido" style="html=1;verticalAlign=bottom;endArrow=open;dashed=1;endSize=8;curved=0;rounded=0;" parent="1" source="UFIIIXsz1D7t0Zp7uZU6-142" target="UFIIIXsz1D7t0Zp7uZU6-136" edge="1">
          <mxGeometry relative="1" as="geometry">
            <mxPoint x="1310" y="360" as="sourcePoint" />
            <mxPoint x="1230" y="360" as="targetPoint" />
            <Array as="points">
              <mxPoint x="1300" y="390" />
            </Array>
          </mxGeometry>
        </mxCell>
        <mxCell id="UFIIIXsz1D7t0Zp7uZU6-164" value="pin valido/invalido" style="html=1;verticalAlign=bottom;endArrow=open;dashed=1;endSize=8;curved=0;rounded=0;" parent="1" source="UFIIIXsz1D7t0Zp7uZU6-139" target="UFIIIXsz1D7t0Zp7uZU6-131" edge="1">
          <mxGeometry relative="1" as="geometry">
            <mxPoint x="1120" y="390" as="sourcePoint" />
            <mxPoint x="1230" y="360" as="targetPoint" />
            <Array as="points">
              <mxPoint x="1040" y="390" />
            </Array>
          </mxGeometry>
        </mxCell>
        <mxCell id="UFIIIXsz1D7t0Zp7uZU6-165" value="notifica al banco/invalida tarjeta&lt;div&gt;por 3er intento&lt;/div&gt;" style="html=1;verticalAlign=bottom;startArrow=oval;startFill=1;endArrow=block;startSize=8;curved=0;rounded=0;" parent="1" source="UFIIIXsz1D7t0Zp7uZU6-142" target="UFIIIXsz1D7t0Zp7uZU6-149" edge="1">
          <mxGeometry width="60" relative="1" as="geometry">
            <mxPoint x="1400" y="380" as="sourcePoint" />
            <mxPoint x="1460" y="380" as="targetPoint" />
            <Array as="points">
              <mxPoint x="1470" y="390" />
            </Array>
          </mxGeometry>
        </mxCell>
        <mxCell id="UFIIIXsz1D7t0Zp7uZU6-166" value="invalida la tarjeta" style="html=1;verticalAlign=bottom;endArrow=open;dashed=1;endSize=8;curved=0;rounded=0;" parent="1" source="UFIIIXsz1D7t0Zp7uZU6-149" target="UFIIIXsz1D7t0Zp7uZU6-136" edge="1">
          <mxGeometry x="0.5093" relative="1" as="geometry">
            <mxPoint x="1380" y="420" as="sourcePoint" />
            <mxPoint x="1360" y="420" as="targetPoint" />
            <Array as="points">
              <mxPoint x="1360" y="420" />
            </Array>
            <mxPoint as="offset" />
          </mxGeometry>
        </mxCell>
        <mxCell id="UFIIIXsz1D7t0Zp7uZU6-167" value="notifica el bloqueo de la tarjeta" style="html=1;verticalAlign=bottom;endArrow=open;dashed=1;endSize=8;curved=0;rounded=0;" parent="1" source="UFIIIXsz1D7t0Zp7uZU6-139" target="UFIIIXsz1D7t0Zp7uZU6-131" edge="1">
          <mxGeometry relative="1" as="geometry">
            <mxPoint x="1330" y="340" as="sourcePoint" />
            <mxPoint x="1250" y="340" as="targetPoint" />
            <Array as="points">
              <mxPoint x="1040" y="420" />
            </Array>
          </mxGeometry>
        </mxCell>
        <mxCell id="UFIIIXsz1D7t0Zp7uZU6-168" value="inicia sesion/solicita operacion" style="html=1;verticalAlign=bottom;startArrow=oval;startFill=1;endArrow=block;startSize=8;curved=0;rounded=0;exitX=0;exitY=0;exitDx=0;exitDy=5;exitPerimeter=0;" parent="1" source="UFIIIXsz1D7t0Zp7uZU6-140" target="UFIIIXsz1D7t0Zp7uZU6-131" edge="1">
          <mxGeometry width="60" relative="1" as="geometry">
            <mxPoint x="1160" y="420" as="sourcePoint" />
            <mxPoint x="1220" y="420" as="targetPoint" />
          </mxGeometry>
        </mxCell>
        <mxCell id="UFIIIXsz1D7t0Zp7uZU6-169" value="depositar dinero" style="html=1;verticalAlign=bottom;endArrow=open;dashed=1;endSize=8;curved=0;rounded=0;" parent="1" source="UFIIIXsz1D7t0Zp7uZU6-131" target="UFIIIXsz1D7t0Zp7uZU6-140" edge="1">
          <mxGeometry relative="1" as="geometry">
            <mxPoint x="1260" y="410" as="sourcePoint" />
            <mxPoint x="1180" y="410" as="targetPoint" />
            <Array as="points" />
          </mxGeometry>
        </mxCell>
        <mxCell id="UFIIIXsz1D7t0Zp7uZU6-170" value="solicitar deposito de dinero" style="html=1;verticalAlign=bottom;startArrow=oval;startFill=1;endArrow=block;startSize=8;curved=0;rounded=0;" parent="1" source="UFIIIXsz1D7t0Zp7uZU6-136" target="UFIIIXsz1D7t0Zp7uZU6-142" edge="1">
          <mxGeometry width="60" relative="1" as="geometry">
            <mxPoint x="1300" y="420" as="sourcePoint" />
            <mxPoint x="1360" y="420" as="targetPoint" />
            <Array as="points">
              <mxPoint x="1250" y="490" />
            </Array>
          </mxGeometry>
        </mxCell>
        <mxCell id="UFIIIXsz1D7t0Zp7uZU6-171" value="cantidad requerida" style="html=1;verticalAlign=bottom;startArrow=oval;startFill=1;endArrow=block;startSize=8;curved=0;rounded=0;" parent="1" source="UFIIIXsz1D7t0Zp7uZU6-142" target="UFIIIXsz1D7t0Zp7uZU6-136" edge="1">
          <mxGeometry width="60" relative="1" as="geometry">
            <mxPoint x="1230" y="440" as="sourcePoint" />
            <mxPoint x="1290" y="440" as="targetPoint" />
            <Array as="points">
              <mxPoint x="1240" y="510" />
            </Array>
          </mxGeometry>
        </mxCell>
        <mxCell id="UFIIIXsz1D7t0Zp7uZU6-172" value="digitar cantidad" style="html=1;verticalAlign=bottom;startArrow=oval;startFill=1;endArrow=block;startSize=8;curved=0;rounded=0;" parent="1" source="UFIIIXsz1D7t0Zp7uZU6-141" target="UFIIIXsz1D7t0Zp7uZU6-131" edge="1">
          <mxGeometry width="60" relative="1" as="geometry">
            <mxPoint x="1190" y="460" as="sourcePoint" />
            <mxPoint x="1250" y="460" as="targetPoint" />
            <Array as="points">
              <mxPoint x="1040" y="520" />
            </Array>
          </mxGeometry>
        </mxCell>
        <mxCell id="UFIIIXsz1D7t0Zp7uZU6-173" value="cantidad digitada" style="html=1;verticalAlign=bottom;endArrow=open;dashed=1;endSize=8;curved=0;rounded=0;exitX=1;exitY=1;exitDx=0;exitDy=-5;exitPerimeter=0;" parent="1" source="UFIIIXsz1D7t0Zp7uZU6-134" target="UFIIIXsz1D7t0Zp7uZU6-141" edge="1">
          <mxGeometry relative="1" as="geometry">
            <mxPoint x="1260" y="460" as="sourcePoint" />
            <mxPoint x="1180" y="460" as="targetPoint" />
          </mxGeometry>
        </mxCell>
        <mxCell id="UFIIIXsz1D7t0Zp7uZU6-178" value="registrar movimiento de dinero" style="html=1;verticalAlign=bottom;startArrow=oval;startFill=1;endArrow=block;startSize=8;curved=0;rounded=0;exitX=1;exitY=0;exitDx=0;exitDy=5;exitPerimeter=0;entryX=0;entryY=0;entryDx=0;entryDy=5;entryPerimeter=0;" parent="1" target="UFIIIXsz1D7t0Zp7uZU6-151" edge="1">
          <mxGeometry width="60" relative="1" as="geometry">
            <mxPoint x="1370" y="686.9999999999998" as="sourcePoint" />
            <mxPoint x="1450" y="770" as="targetPoint" />
            <Array as="points" />
          </mxGeometry>
        </mxCell>
        <mxCell id="UFIIIXsz1D7t0Zp7uZU6-179" value="movimiento si/no registrado" style="html=1;verticalAlign=bottom;endArrow=open;dashed=1;endSize=8;curved=0;rounded=0;" parent="1" source="UFIIIXsz1D7t0Zp7uZU6-151" target="UFIIIXsz1D7t0Zp7uZU6-145" edge="1">
          <mxGeometry relative="1" as="geometry">
            <mxPoint x="1470" y="620" as="sourcePoint" />
            <mxPoint x="1370" y="731.9999999999998" as="targetPoint" />
            <Array as="points">
              <mxPoint x="1470" y="732" />
            </Array>
          </mxGeometry>
        </mxCell>
        <mxCell id="UFIIIXsz1D7t0Zp7uZU6-182" value="solicitud de recibo" style="html=1;verticalAlign=bottom;startArrow=oval;startFill=1;endArrow=block;startSize=8;curved=0;rounded=0;" parent="1" source="UFIIIXsz1D7t0Zp7uZU6-137" target="UFIIIXsz1D7t0Zp7uZU6-131" edge="1">
          <mxGeometry width="60" relative="1" as="geometry">
            <mxPoint x="1130" y="729.9999999999998" as="sourcePoint" />
            <mxPoint x="1110" y="670" as="targetPoint" />
            <Array as="points">
              <mxPoint x="1040" y="730" />
            </Array>
          </mxGeometry>
        </mxCell>
        <mxCell id="UFIIIXsz1D7t0Zp7uZU6-183" value="si/no" style="html=1;verticalAlign=bottom;endArrow=open;dashed=1;endSize=8;curved=0;rounded=0;exitX=1;exitY=1;exitDx=0;exitDy=-5;exitPerimeter=0;" parent="1" source="UFIIIXsz1D7t0Zp7uZU6-135" target="UFIIIXsz1D7t0Zp7uZU6-136" edge="1">
          <mxGeometry relative="1" as="geometry">
            <mxPoint x="1140" y="750" as="sourcePoint" />
            <mxPoint x="1060" y="750" as="targetPoint" />
          </mxGeometry>
        </mxCell>
        <mxCell id="UFIIIXsz1D7t0Zp7uZU6-184" value="solicitar y registrar recibo" style="html=1;verticalAlign=bottom;startArrow=oval;startFill=1;endArrow=block;startSize=8;curved=0;rounded=0;" parent="1" target="UFIIIXsz1D7t0Zp7uZU6-148" edge="1">
          <mxGeometry width="60" relative="1" as="geometry">
            <mxPoint x="1140" y="760" as="sourcePoint" />
            <mxPoint x="1200" y="760" as="targetPoint" />
          </mxGeometry>
        </mxCell>
        <mxCell id="UFIIIXsz1D7t0Zp7uZU6-187" value="devolver informacion de operacion" style="html=1;verticalAlign=bottom;endArrow=open;dashed=1;endSize=8;curved=0;rounded=0;" parent="1" source="UFIIIXsz1D7t0Zp7uZU6-142" target="UFIIIXsz1D7t0Zp7uZU6-137" edge="1">
          <mxGeometry relative="1" as="geometry">
            <mxPoint x="1300" y="840" as="sourcePoint" />
            <mxPoint x="1220" y="840" as="targetPoint" />
            <Array as="points">
              <mxPoint x="1250" y="840" />
            </Array>
          </mxGeometry>
        </mxCell>
        <mxCell id="UFIIIXsz1D7t0Zp7uZU6-188" value="imprimir/mostrar recibo" style="html=1;verticalAlign=bottom;endArrow=open;dashed=1;endSize=8;curved=0;rounded=0;" parent="1" source="UFIIIXsz1D7t0Zp7uZU6-137" target="UFIIIXsz1D7t0Zp7uZU6-131" edge="1">
          <mxGeometry relative="1" as="geometry">
            <mxPoint x="1110" y="850" as="sourcePoint" />
            <mxPoint x="1030" y="850" as="targetPoint" />
            <Array as="points">
              <mxPoint x="1070" y="840" />
            </Array>
          </mxGeometry>
        </mxCell>
        <mxCell id="UFIIIXsz1D7t0Zp7uZU6-189" value="retirar tarjeta" style="html=1;verticalAlign=bottom;endArrow=open;dashed=1;endSize=8;curved=0;rounded=0;" parent="1" source="UFIIIXsz1D7t0Zp7uZU6-136" target="UFIIIXsz1D7t0Zp7uZU6-131" edge="1">
          <mxGeometry relative="1" as="geometry">
            <mxPoint x="1080" y="830" as="sourcePoint" />
            <mxPoint x="1000" y="830" as="targetPoint" />
            <Array as="points">
              <mxPoint x="1070" y="890" />
            </Array>
          </mxGeometry>
        </mxCell>
        <mxCell id="UFIIIXsz1D7t0Zp7uZU6-190" value="" style="shape=umlLifeline;perimeter=lifelinePerimeter;whiteSpace=wrap;html=1;container=1;dropTarget=0;collapsible=0;recursiveResize=0;outlineConnect=0;portConstraint=eastwest;newEdgeStyle={&quot;curved&quot;:0,&quot;rounded&quot;:0};participant=umlActor;" parent="1" vertex="1">
          <mxGeometry x="75" y="1270" width="20" height="910" as="geometry" />
        </mxCell>
        <mxCell id="UFIIIXsz1D7t0Zp7uZU6-191" value="" style="html=1;points=[[0,0,0,0,5],[0,1,0,0,-5],[1,0,0,0,5],[1,1,0,0,-5]];perimeter=orthogonalPerimeter;outlineConnect=0;targetShapes=umlLifeline;portConstraint=eastwest;newEdgeStyle={&quot;curved&quot;:0,&quot;rounded&quot;:0};" parent="UFIIIXsz1D7t0Zp7uZU6-190" vertex="1">
          <mxGeometry x="5" y="150" width="10" height="30" as="geometry" />
        </mxCell>
        <mxCell id="UFIIIXsz1D7t0Zp7uZU6-192" value="" style="html=1;points=[[0,0,0,0,5],[0,1,0,0,-5],[1,0,0,0,5],[1,1,0,0,-5]];perimeter=orthogonalPerimeter;outlineConnect=0;targetShapes=umlLifeline;portConstraint=eastwest;newEdgeStyle={&quot;curved&quot;:0,&quot;rounded&quot;:0};" parent="UFIIIXsz1D7t0Zp7uZU6-190" vertex="1">
          <mxGeometry x="5" y="260" width="10" height="40" as="geometry" />
        </mxCell>
        <mxCell id="UFIIIXsz1D7t0Zp7uZU6-193" value="" style="html=1;points=[[0,0,0,0,5],[0,1,0,0,-5],[1,0,0,0,5],[1,1,0,0,-5]];perimeter=orthogonalPerimeter;outlineConnect=0;targetShapes=umlLifeline;portConstraint=eastwest;newEdgeStyle={&quot;curved&quot;:0,&quot;rounded&quot;:0};" parent="UFIIIXsz1D7t0Zp7uZU6-190" vertex="1">
          <mxGeometry x="5" y="330" width="10" height="30" as="geometry" />
        </mxCell>
        <mxCell id="UFIIIXsz1D7t0Zp7uZU6-194" value="" style="html=1;points=[[0,0,0,0,5],[0,1,0,0,-5],[1,0,0,0,5],[1,1,0,0,-5]];perimeter=orthogonalPerimeter;outlineConnect=0;targetShapes=umlLifeline;portConstraint=eastwest;newEdgeStyle={&quot;curved&quot;:0,&quot;rounded&quot;:0};" parent="UFIIIXsz1D7t0Zp7uZU6-190" vertex="1">
          <mxGeometry x="5" y="680" width="10" height="30" as="geometry" />
        </mxCell>
        <mxCell id="UFIIIXsz1D7t0Zp7uZU6-265" value="" style="html=1;points=[[0,0,0,0,5],[0,1,0,0,-5],[1,0,0,0,5],[1,1,0,0,-5]];perimeter=orthogonalPerimeter;outlineConnect=0;targetShapes=umlLifeline;portConstraint=eastwest;newEdgeStyle={&quot;curved&quot;:0,&quot;rounded&quot;:0};" parent="UFIIIXsz1D7t0Zp7uZU6-190" vertex="1">
          <mxGeometry x="5" y="460" width="10" height="30" as="geometry" />
        </mxCell>
        <mxCell id="UFIIIXsz1D7t0Zp7uZU6-274" value="" style="html=1;points=[[0,0,0,0,5],[0,1,0,0,-5],[1,0,0,0,5],[1,1,0,0,-5]];perimeter=orthogonalPerimeter;outlineConnect=0;targetShapes=umlLifeline;portConstraint=eastwest;newEdgeStyle={&quot;curved&quot;:0,&quot;rounded&quot;:0};" parent="UFIIIXsz1D7t0Zp7uZU6-190" vertex="1">
          <mxGeometry x="5" y="570" width="10" height="20" as="geometry" />
        </mxCell>
        <mxCell id="UFIIIXsz1D7t0Zp7uZU6-195" value="Cajero" style="shape=umlLifeline;perimeter=lifelinePerimeter;whiteSpace=wrap;html=1;container=1;dropTarget=0;collapsible=0;recursiveResize=0;outlineConnect=0;portConstraint=eastwest;newEdgeStyle={&quot;curved&quot;:0,&quot;rounded&quot;:0};" parent="1" vertex="1">
          <mxGeometry x="225" y="1270" width="100" height="890" as="geometry" />
        </mxCell>
        <mxCell id="UFIIIXsz1D7t0Zp7uZU6-196" value="" style="html=1;points=[[0,0,0,0,5],[0,1,0,0,-5],[1,0,0,0,5],[1,1,0,0,-5]];perimeter=orthogonalPerimeter;outlineConnect=0;targetShapes=umlLifeline;portConstraint=eastwest;newEdgeStyle={&quot;curved&quot;:0,&quot;rounded&quot;:0};" parent="UFIIIXsz1D7t0Zp7uZU6-195" vertex="1">
          <mxGeometry x="45" y="80" width="10" height="780" as="geometry" />
        </mxCell>
        <mxCell id="UFIIIXsz1D7t0Zp7uZU6-197" value="" style="html=1;points=[[0,0,0,0,5],[0,1,0,0,-5],[1,0,0,0,5],[1,1,0,0,-5]];perimeter=orthogonalPerimeter;outlineConnect=0;targetShapes=umlLifeline;portConstraint=eastwest;newEdgeStyle={&quot;curved&quot;:0,&quot;rounded&quot;:0};" parent="UFIIIXsz1D7t0Zp7uZU6-195" vertex="1">
          <mxGeometry x="50" y="80" width="10" height="40" as="geometry" />
        </mxCell>
        <mxCell id="UFIIIXsz1D7t0Zp7uZU6-198" value="" style="html=1;points=[[0,0,0,0,5],[0,1,0,0,-5],[1,0,0,0,5],[1,1,0,0,-5]];perimeter=orthogonalPerimeter;outlineConnect=0;targetShapes=umlLifeline;portConstraint=eastwest;newEdgeStyle={&quot;curved&quot;:0,&quot;rounded&quot;:0};" parent="UFIIIXsz1D7t0Zp7uZU6-195" vertex="1">
          <mxGeometry x="40" y="150" width="10" height="80" as="geometry" />
        </mxCell>
        <mxCell id="UFIIIXsz1D7t0Zp7uZU6-199" value="" style="html=1;points=[[0,0,0,0,5],[0,1,0,0,-5],[1,0,0,0,5],[1,1,0,0,-5]];perimeter=orthogonalPerimeter;outlineConnect=0;targetShapes=umlLifeline;portConstraint=eastwest;newEdgeStyle={&quot;curved&quot;:0,&quot;rounded&quot;:0};" parent="UFIIIXsz1D7t0Zp7uZU6-195" vertex="1">
          <mxGeometry x="50" y="260" width="10" height="40" as="geometry" />
        </mxCell>
        <mxCell id="UFIIIXsz1D7t0Zp7uZU6-200" value="" style="html=1;points=[[0,0,0,0,5],[0,1,0,0,-5],[1,0,0,0,5],[1,1,0,0,-5]];perimeter=orthogonalPerimeter;outlineConnect=0;targetShapes=umlLifeline;portConstraint=eastwest;newEdgeStyle={&quot;curved&quot;:0,&quot;rounded&quot;:0};" parent="UFIIIXsz1D7t0Zp7uZU6-195" vertex="1">
          <mxGeometry x="40" y="320" width="10" height="50" as="geometry" />
        </mxCell>
        <mxCell id="UFIIIXsz1D7t0Zp7uZU6-262" value="" style="html=1;points=[[0,0,0,0,5],[0,1,0,0,-5],[1,0,0,0,5],[1,1,0,0,-5]];perimeter=orthogonalPerimeter;outlineConnect=0;targetShapes=umlLifeline;portConstraint=eastwest;newEdgeStyle={&quot;curved&quot;:0,&quot;rounded&quot;:0};" parent="UFIIIXsz1D7t0Zp7uZU6-195" vertex="1">
          <mxGeometry x="50" y="460" width="10" height="40" as="geometry" />
        </mxCell>
        <mxCell id="UFIIIXsz1D7t0Zp7uZU6-273" value="" style="html=1;points=[[0,0,0,0,5],[0,1,0,0,-5],[1,0,0,0,5],[1,1,0,0,-5]];perimeter=orthogonalPerimeter;outlineConnect=0;targetShapes=umlLifeline;portConstraint=eastwest;newEdgeStyle={&quot;curved&quot;:0,&quot;rounded&quot;:0};" parent="UFIIIXsz1D7t0Zp7uZU6-195" vertex="1">
          <mxGeometry x="50" y="570" width="10" height="30" as="geometry" />
        </mxCell>
        <mxCell id="UFIIIXsz1D7t0Zp7uZU6-201" value="Cuenta" style="shape=umlLifeline;perimeter=lifelinePerimeter;whiteSpace=wrap;html=1;container=1;dropTarget=0;collapsible=0;recursiveResize=0;outlineConnect=0;portConstraint=eastwest;newEdgeStyle={&quot;curved&quot;:0,&quot;rounded&quot;:0};" parent="1" vertex="1">
          <mxGeometry x="445" y="1270" width="100" height="900" as="geometry" />
        </mxCell>
        <mxCell id="UFIIIXsz1D7t0Zp7uZU6-202" value="" style="html=1;points=[[0,0,0,0,5],[0,1,0,0,-5],[1,0,0,0,5],[1,1,0,0,-5]];perimeter=orthogonalPerimeter;outlineConnect=0;targetShapes=umlLifeline;portConstraint=eastwest;newEdgeStyle={&quot;curved&quot;:0,&quot;rounded&quot;:0};" parent="UFIIIXsz1D7t0Zp7uZU6-201" vertex="1">
          <mxGeometry x="45" y="100" width="10" height="20" as="geometry" />
        </mxCell>
        <mxCell id="UFIIIXsz1D7t0Zp7uZU6-203" value="" style="html=1;points=[[0,0,0,0,5],[0,1,0,0,-5],[1,0,0,0,5],[1,1,0,0,-5]];perimeter=orthogonalPerimeter;outlineConnect=0;targetShapes=umlLifeline;portConstraint=eastwest;newEdgeStyle={&quot;curved&quot;:0,&quot;rounded&quot;:0};" parent="UFIIIXsz1D7t0Zp7uZU6-201" vertex="1">
          <mxGeometry x="45" y="180" width="10" height="20" as="geometry" />
        </mxCell>
        <mxCell id="UFIIIXsz1D7t0Zp7uZU6-204" value="" style="html=1;points=[[0,0,0,0,5],[0,1,0,0,-5],[1,0,0,0,5],[1,1,0,0,-5]];perimeter=orthogonalPerimeter;outlineConnect=0;targetShapes=umlLifeline;portConstraint=eastwest;newEdgeStyle={&quot;curved&quot;:0,&quot;rounded&quot;:0};" parent="UFIIIXsz1D7t0Zp7uZU6-201" vertex="1">
          <mxGeometry x="45" y="310" width="10" height="570" as="geometry" />
        </mxCell>
        <mxCell id="UFIIIXsz1D7t0Zp7uZU6-205" value="" style="html=1;points=[[0,0,0,0,5],[0,1,0,0,-5],[1,0,0,0,5],[1,1,0,0,-5]];perimeter=orthogonalPerimeter;outlineConnect=0;targetShapes=umlLifeline;portConstraint=eastwest;newEdgeStyle={&quot;curved&quot;:0,&quot;rounded&quot;:0};" parent="UFIIIXsz1D7t0Zp7uZU6-201" vertex="1">
          <mxGeometry x="40" y="370" width="10" height="50" as="geometry" />
        </mxCell>
        <mxCell id="UFIIIXsz1D7t0Zp7uZU6-207" value="" style="html=1;points=[[0,0,0,0,5],[0,1,0,0,-5],[1,0,0,0,5],[1,1,0,0,-5]];perimeter=orthogonalPerimeter;outlineConnect=0;targetShapes=umlLifeline;portConstraint=eastwest;newEdgeStyle={&quot;curved&quot;:0,&quot;rounded&quot;:0};" parent="UFIIIXsz1D7t0Zp7uZU6-201" vertex="1">
          <mxGeometry x="40" y="730" width="10" height="80" as="geometry" />
        </mxCell>
        <mxCell id="UFIIIXsz1D7t0Zp7uZU6-268" value="" style="html=1;points=[[0,0,0,0,5],[0,1,0,0,-5],[1,0,0,0,5],[1,1,0,0,-5]];perimeter=orthogonalPerimeter;outlineConnect=0;targetShapes=umlLifeline;portConstraint=eastwest;newEdgeStyle={&quot;curved&quot;:0,&quot;rounded&quot;:0};" parent="UFIIIXsz1D7t0Zp7uZU6-201" vertex="1">
          <mxGeometry x="40" y="490" width="10" height="40" as="geometry" />
        </mxCell>
        <mxCell id="UFIIIXsz1D7t0Zp7uZU6-280" value="solicitar&lt;div&gt;nuevamente&lt;/div&gt;" style="html=1;verticalAlign=bottom;startArrow=oval;startFill=1;endArrow=block;startSize=8;curved=0;rounded=0;" parent="UFIIIXsz1D7t0Zp7uZU6-201" source="UFIIIXsz1D7t0Zp7uZU6-204" target="UFIIIXsz1D7t0Zp7uZU6-201" edge="1">
          <mxGeometry width="60" relative="1" as="geometry">
            <mxPoint x="-20" y="480" as="sourcePoint" />
            <mxPoint x="170" y="500" as="targetPoint" />
            <Array as="points">
              <mxPoint x="70" y="595" />
              <mxPoint x="90" y="590" />
              <mxPoint x="90" y="460" />
            </Array>
          </mxGeometry>
        </mxCell>
        <mxCell id="UFIIIXsz1D7t0Zp7uZU6-281" value="" style="html=1;points=[[0,0,0,0,5],[0,1,0,0,-5],[1,0,0,0,5],[1,1,0,0,-5]];perimeter=orthogonalPerimeter;outlineConnect=0;targetShapes=umlLifeline;portConstraint=eastwest;newEdgeStyle={&quot;curved&quot;:0,&quot;rounded&quot;:0};" parent="UFIIIXsz1D7t0Zp7uZU6-201" vertex="1">
          <mxGeometry x="40" y="595" width="10" height="35" as="geometry" />
        </mxCell>
        <mxCell id="UFIIIXsz1D7t0Zp7uZU6-208" value="Banco" style="shape=umlLifeline;perimeter=lifelinePerimeter;whiteSpace=wrap;html=1;container=1;dropTarget=0;collapsible=0;recursiveResize=0;outlineConnect=0;portConstraint=eastwest;newEdgeStyle={&quot;curved&quot;:0,&quot;rounded&quot;:0};" parent="1" vertex="1">
          <mxGeometry x="675" y="1270" width="100" height="900" as="geometry" />
        </mxCell>
        <mxCell id="UFIIIXsz1D7t0Zp7uZU6-209" value="" style="html=1;points=[[0,0,0,0,5],[0,1,0,0,-5],[1,0,0,0,5],[1,1,0,0,-5]];perimeter=orthogonalPerimeter;outlineConnect=0;targetShapes=umlLifeline;portConstraint=eastwest;newEdgeStyle={&quot;curved&quot;:0,&quot;rounded&quot;:0};" parent="UFIIIXsz1D7t0Zp7uZU6-208" vertex="1">
          <mxGeometry x="45" y="200" width="10" height="30" as="geometry" />
        </mxCell>
        <mxCell id="UFIIIXsz1D7t0Zp7uZU6-283" value="" style="html=1;points=[[0,0,0,0,5],[0,1,0,0,-5],[1,0,0,0,5],[1,1,0,0,-5]];perimeter=orthogonalPerimeter;outlineConnect=0;targetShapes=umlLifeline;portConstraint=eastwest;newEdgeStyle={&quot;curved&quot;:0,&quot;rounded&quot;:0};" parent="UFIIIXsz1D7t0Zp7uZU6-208" vertex="1">
          <mxGeometry x="45" y="610" width="10" height="40" as="geometry" />
        </mxCell>
        <mxCell id="UFIIIXsz1D7t0Zp7uZU6-212" value="SECUENCIA DE COMPRAR ENTRADAS" style="text;align=center;fontStyle=1;verticalAlign=middle;spacingLeft=3;spacingRight=3;strokeColor=none;rotatable=0;points=[[0,0.5],[1,0.5]];portConstraint=eastwest;html=1;fontSize=26;" parent="1" vertex="1">
          <mxGeometry x="295" y="1150" width="200" height="96" as="geometry" />
        </mxCell>
        <mxCell id="UFIIIXsz1D7t0Zp7uZU6-213" value="Insertar Tarjeta" style="html=1;verticalAlign=bottom;startArrow=oval;startFill=1;endArrow=block;startSize=8;curved=0;rounded=0;" parent="1" source="UFIIIXsz1D7t0Zp7uZU6-190" target="UFIIIXsz1D7t0Zp7uZU6-195" edge="1">
          <mxGeometry width="60" relative="1" as="geometry">
            <mxPoint x="235" y="1430" as="sourcePoint" />
            <mxPoint x="295" y="1430" as="targetPoint" />
            <Array as="points">
              <mxPoint x="175" y="1350" />
            </Array>
          </mxGeometry>
        </mxCell>
        <mxCell id="UFIIIXsz1D7t0Zp7uZU6-214" value="validacion de tarjeta" style="html=1;verticalAlign=bottom;startArrow=oval;startFill=1;endArrow=block;startSize=8;curved=0;rounded=0;" parent="1" source="UFIIIXsz1D7t0Zp7uZU6-196" target="UFIIIXsz1D7t0Zp7uZU6-201" edge="1">
          <mxGeometry width="60" relative="1" as="geometry">
            <mxPoint x="385" y="1420" as="sourcePoint" />
            <mxPoint x="445" y="1420" as="targetPoint" />
            <Array as="points">
              <mxPoint x="385" y="1370" />
            </Array>
          </mxGeometry>
        </mxCell>
        <mxCell id="UFIIIXsz1D7t0Zp7uZU6-215" value="tarjeta valida/invalida" style="html=1;verticalAlign=bottom;endArrow=open;dashed=1;endSize=8;curved=0;rounded=0;exitX=0;exitY=1;exitDx=0;exitDy=-5;exitPerimeter=0;" parent="1" source="UFIIIXsz1D7t0Zp7uZU6-202" target="UFIIIXsz1D7t0Zp7uZU6-195" edge="1">
          <mxGeometry relative="1" as="geometry">
            <mxPoint x="455" y="1420" as="sourcePoint" />
            <mxPoint x="375" y="1420" as="targetPoint" />
          </mxGeometry>
        </mxCell>
        <mxCell id="UFIIIXsz1D7t0Zp7uZU6-216" value="tarjeta invalida utilizada" style="html=1;verticalAlign=bottom;startArrow=oval;startFill=1;endArrow=block;startSize=8;curved=0;rounded=0;exitX=1;exitY=1;exitDx=0;exitDy=-5;exitPerimeter=0;" parent="1" source="UFIIIXsz1D7t0Zp7uZU6-202" target="UFIIIXsz1D7t0Zp7uZU6-208" edge="1">
          <mxGeometry width="60" relative="1" as="geometry">
            <mxPoint x="445" y="1430" as="sourcePoint" />
            <mxPoint x="505" y="1430" as="targetPoint" />
          </mxGeometry>
        </mxCell>
        <mxCell id="UFIIIXsz1D7t0Zp7uZU6-217" value="Tarjeta aceptada/rechazada" style="html=1;verticalAlign=bottom;endArrow=open;dashed=1;endSize=8;curved=0;rounded=0;" parent="1" source="UFIIIXsz1D7t0Zp7uZU6-196" target="UFIIIXsz1D7t0Zp7uZU6-190" edge="1">
          <mxGeometry x="0.024" relative="1" as="geometry">
            <mxPoint x="295" y="1400" as="sourcePoint" />
            <mxPoint x="215" y="1400" as="targetPoint" />
            <Array as="points">
              <mxPoint x="175" y="1390" />
            </Array>
            <mxPoint as="offset" />
          </mxGeometry>
        </mxCell>
        <mxCell id="UFIIIXsz1D7t0Zp7uZU6-218" value="solicitud de pin para iniciar sesion" style="html=1;verticalAlign=bottom;startArrow=oval;startFill=1;endArrow=block;startSize=8;curved=0;rounded=0;" parent="1" source="UFIIIXsz1D7t0Zp7uZU6-201" target="UFIIIXsz1D7t0Zp7uZU6-195" edge="1">
          <mxGeometry width="60" relative="1" as="geometry">
            <mxPoint x="385" y="1370" as="sourcePoint" />
            <mxPoint x="445" y="1370" as="targetPoint" />
            <Array as="points">
              <mxPoint x="385" y="1420" />
            </Array>
          </mxGeometry>
        </mxCell>
        <mxCell id="UFIIIXsz1D7t0Zp7uZU6-219" value="solicitar pin" style="html=1;verticalAlign=bottom;startArrow=oval;startFill=1;endArrow=block;startSize=8;curved=0;rounded=0;exitX=0;exitY=0;exitDx=0;exitDy=5;exitPerimeter=0;" parent="1" source="UFIIIXsz1D7t0Zp7uZU6-198" target="UFIIIXsz1D7t0Zp7uZU6-190" edge="1">
          <mxGeometry width="60" relative="1" as="geometry">
            <mxPoint x="265" y="1380" as="sourcePoint" />
            <mxPoint x="325" y="1380" as="targetPoint" />
          </mxGeometry>
        </mxCell>
        <mxCell id="UFIIIXsz1D7t0Zp7uZU6-220" value="Ingresar Pin" style="html=1;verticalAlign=bottom;endArrow=open;dashed=1;endSize=8;curved=0;rounded=0;exitX=1;exitY=1;exitDx=0;exitDy=-5;exitPerimeter=0;" parent="1" source="UFIIIXsz1D7t0Zp7uZU6-191" target="UFIIIXsz1D7t0Zp7uZU6-198" edge="1">
          <mxGeometry relative="1" as="geometry">
            <mxPoint x="355" y="1440" as="sourcePoint" />
            <mxPoint x="275" y="1440" as="targetPoint" />
          </mxGeometry>
        </mxCell>
        <mxCell id="UFIIIXsz1D7t0Zp7uZU6-221" value="verificacion de pin" style="html=1;verticalAlign=bottom;startArrow=oval;startFill=1;endArrow=block;startSize=8;curved=0;rounded=0;" parent="1" source="UFIIIXsz1D7t0Zp7uZU6-198" target="UFIIIXsz1D7t0Zp7uZU6-201" edge="1">
          <mxGeometry width="60" relative="1" as="geometry">
            <mxPoint x="375" y="1440" as="sourcePoint" />
            <mxPoint x="435" y="1440" as="targetPoint" />
            <Array as="points">
              <mxPoint x="355" y="1450" />
            </Array>
          </mxGeometry>
        </mxCell>
        <mxCell id="UFIIIXsz1D7t0Zp7uZU6-222" value="pin valido/invalido" style="html=1;verticalAlign=bottom;endArrow=open;dashed=1;endSize=8;curved=0;rounded=0;" parent="1" source="UFIIIXsz1D7t0Zp7uZU6-201" target="UFIIIXsz1D7t0Zp7uZU6-195" edge="1">
          <mxGeometry relative="1" as="geometry">
            <mxPoint x="445" y="1440" as="sourcePoint" />
            <mxPoint x="365" y="1440" as="targetPoint" />
            <Array as="points">
              <mxPoint x="435" y="1470" />
            </Array>
          </mxGeometry>
        </mxCell>
        <mxCell id="UFIIIXsz1D7t0Zp7uZU6-223" value="pin valido/invalido" style="html=1;verticalAlign=bottom;endArrow=open;dashed=1;endSize=8;curved=0;rounded=0;" parent="1" source="UFIIIXsz1D7t0Zp7uZU6-198" target="UFIIIXsz1D7t0Zp7uZU6-190" edge="1">
          <mxGeometry relative="1" as="geometry">
            <mxPoint x="255" y="1470" as="sourcePoint" />
            <mxPoint x="365" y="1440" as="targetPoint" />
            <Array as="points">
              <mxPoint x="175" y="1470" />
            </Array>
          </mxGeometry>
        </mxCell>
        <mxCell id="UFIIIXsz1D7t0Zp7uZU6-224" value="notifica al banco/invalida tarjeta&lt;div&gt;por 3er intento&lt;/div&gt;" style="html=1;verticalAlign=bottom;startArrow=oval;startFill=1;endArrow=block;startSize=8;curved=0;rounded=0;" parent="1" source="UFIIIXsz1D7t0Zp7uZU6-201" target="UFIIIXsz1D7t0Zp7uZU6-208" edge="1">
          <mxGeometry width="60" relative="1" as="geometry">
            <mxPoint x="535" y="1460" as="sourcePoint" />
            <mxPoint x="595" y="1460" as="targetPoint" />
            <Array as="points">
              <mxPoint x="605" y="1470" />
            </Array>
          </mxGeometry>
        </mxCell>
        <mxCell id="UFIIIXsz1D7t0Zp7uZU6-225" value="invalida la tarjeta" style="html=1;verticalAlign=bottom;endArrow=open;dashed=1;endSize=8;curved=0;rounded=0;" parent="1" source="UFIIIXsz1D7t0Zp7uZU6-208" target="UFIIIXsz1D7t0Zp7uZU6-195" edge="1">
          <mxGeometry x="0.5093" relative="1" as="geometry">
            <mxPoint x="515" y="1500" as="sourcePoint" />
            <mxPoint x="495" y="1500" as="targetPoint" />
            <Array as="points">
              <mxPoint x="495" y="1500" />
            </Array>
            <mxPoint as="offset" />
          </mxGeometry>
        </mxCell>
        <mxCell id="UFIIIXsz1D7t0Zp7uZU6-226" value="notifica el bloqueo de la tarjeta" style="html=1;verticalAlign=bottom;endArrow=open;dashed=1;endSize=8;curved=0;rounded=0;" parent="1" source="UFIIIXsz1D7t0Zp7uZU6-198" target="UFIIIXsz1D7t0Zp7uZU6-190" edge="1">
          <mxGeometry relative="1" as="geometry">
            <mxPoint x="465" y="1420" as="sourcePoint" />
            <mxPoint x="385" y="1420" as="targetPoint" />
            <Array as="points">
              <mxPoint x="175" y="1500" />
            </Array>
          </mxGeometry>
        </mxCell>
        <mxCell id="UFIIIXsz1D7t0Zp7uZU6-227" value="inicia sesion/solicita operacion" style="html=1;verticalAlign=bottom;startArrow=oval;startFill=1;endArrow=block;startSize=8;curved=0;rounded=0;exitX=0;exitY=0;exitDx=0;exitDy=5;exitPerimeter=0;" parent="1" source="UFIIIXsz1D7t0Zp7uZU6-199" target="UFIIIXsz1D7t0Zp7uZU6-190" edge="1">
          <mxGeometry width="60" relative="1" as="geometry">
            <mxPoint x="295" y="1500" as="sourcePoint" />
            <mxPoint x="355" y="1500" as="targetPoint" />
          </mxGeometry>
        </mxCell>
        <mxCell id="UFIIIXsz1D7t0Zp7uZU6-228" value="Comprar Entradas" style="html=1;verticalAlign=bottom;endArrow=open;dashed=1;endSize=8;curved=0;rounded=0;" parent="1" source="UFIIIXsz1D7t0Zp7uZU6-190" target="UFIIIXsz1D7t0Zp7uZU6-199" edge="1">
          <mxGeometry relative="1" as="geometry">
            <mxPoint x="395" y="1490" as="sourcePoint" />
            <mxPoint x="315" y="1490" as="targetPoint" />
            <Array as="points">
              <mxPoint x="175" y="1570" />
            </Array>
          </mxGeometry>
        </mxCell>
        <mxCell id="UFIIIXsz1D7t0Zp7uZU6-229" value="solicitar Compra de entradas" style="html=1;verticalAlign=bottom;startArrow=oval;startFill=1;endArrow=block;startSize=8;curved=0;rounded=0;" parent="1" source="UFIIIXsz1D7t0Zp7uZU6-195" target="UFIIIXsz1D7t0Zp7uZU6-201" edge="1">
          <mxGeometry width="60" relative="1" as="geometry">
            <mxPoint x="435" y="1500" as="sourcePoint" />
            <mxPoint x="495" y="1500" as="targetPoint" />
            <Array as="points">
              <mxPoint x="385" y="1570" />
            </Array>
          </mxGeometry>
        </mxCell>
        <mxCell id="UFIIIXsz1D7t0Zp7uZU6-230" value="solicitar tipo de evento" style="html=1;verticalAlign=bottom;startArrow=oval;startFill=1;endArrow=block;startSize=8;curved=0;rounded=0;" parent="1" source="UFIIIXsz1D7t0Zp7uZU6-201" target="UFIIIXsz1D7t0Zp7uZU6-195" edge="1">
          <mxGeometry width="60" relative="1" as="geometry">
            <mxPoint x="365" y="1520" as="sourcePoint" />
            <mxPoint x="425" y="1520" as="targetPoint" />
            <Array as="points">
              <mxPoint x="375" y="1590" />
            </Array>
          </mxGeometry>
        </mxCell>
        <mxCell id="UFIIIXsz1D7t0Zp7uZU6-231" value="digitar evento" style="html=1;verticalAlign=bottom;startArrow=oval;startFill=1;endArrow=block;startSize=8;curved=0;rounded=0;" parent="1" source="UFIIIXsz1D7t0Zp7uZU6-200" target="UFIIIXsz1D7t0Zp7uZU6-190" edge="1">
          <mxGeometry width="60" relative="1" as="geometry">
            <mxPoint x="325" y="1540" as="sourcePoint" />
            <mxPoint x="385" y="1540" as="targetPoint" />
            <Array as="points">
              <mxPoint x="175" y="1600" />
            </Array>
          </mxGeometry>
        </mxCell>
        <mxCell id="UFIIIXsz1D7t0Zp7uZU6-232" value="evento digitado" style="html=1;verticalAlign=bottom;endArrow=open;dashed=1;endSize=8;curved=0;rounded=0;exitX=1;exitY=1;exitDx=0;exitDy=-5;exitPerimeter=0;" parent="1" source="UFIIIXsz1D7t0Zp7uZU6-193" target="UFIIIXsz1D7t0Zp7uZU6-200" edge="1">
          <mxGeometry x="0.0037" relative="1" as="geometry">
            <mxPoint x="395" y="1540" as="sourcePoint" />
            <mxPoint x="315" y="1540" as="targetPoint" />
            <mxPoint as="offset" />
          </mxGeometry>
        </mxCell>
        <mxCell id="UFIIIXsz1D7t0Zp7uZU6-233" value="verificar evento" style="html=1;verticalAlign=bottom;endArrow=open;dashed=1;endSize=8;curved=0;rounded=0;" parent="1" source="UFIIIXsz1D7t0Zp7uZU6-195" target="UFIIIXsz1D7t0Zp7uZU6-204" edge="1">
          <mxGeometry relative="1" as="geometry">
            <mxPoint x="445" y="1550" as="sourcePoint" />
            <mxPoint x="365" y="1550" as="targetPoint" />
            <Array as="points">
              <mxPoint x="385" y="1640" />
            </Array>
          </mxGeometry>
        </mxCell>
        <mxCell id="UFIIIXsz1D7t0Zp7uZU6-234" value="evento si/no disponible" style="html=1;verticalAlign=bottom;endArrow=open;dashed=1;endSize=8;curved=0;rounded=0;" parent="1" source="UFIIIXsz1D7t0Zp7uZU6-201" target="UFIIIXsz1D7t0Zp7uZU6-195" edge="1">
          <mxGeometry x="-0.001" relative="1" as="geometry">
            <mxPoint x="445" y="1600" as="sourcePoint" />
            <mxPoint x="365" y="1600" as="targetPoint" />
            <Array as="points">
              <mxPoint x="395" y="1690" />
            </Array>
            <mxPoint as="offset" />
          </mxGeometry>
        </mxCell>
        <mxCell id="UFIIIXsz1D7t0Zp7uZU6-235" value="evento si/no disponible" style="html=1;verticalAlign=bottom;endArrow=open;dashed=1;endSize=8;curved=0;rounded=0;" parent="1" source="UFIIIXsz1D7t0Zp7uZU6-195" target="UFIIIXsz1D7t0Zp7uZU6-190" edge="1">
          <mxGeometry relative="1" as="geometry">
            <mxPoint x="325" y="1630" as="sourcePoint" />
            <mxPoint x="245" y="1630" as="targetPoint" />
            <Array as="points">
              <mxPoint x="185" y="1690" />
            </Array>
          </mxGeometry>
        </mxCell>
        <mxCell id="UFIIIXsz1D7t0Zp7uZU6-241" value="solicitud de recibo" style="html=1;verticalAlign=bottom;startArrow=oval;startFill=1;endArrow=block;startSize=8;curved=0;rounded=0;" parent="1" source="UFIIIXsz1D7t0Zp7uZU6-196" target="UFIIIXsz1D7t0Zp7uZU6-194" edge="1">
          <mxGeometry width="60" relative="1" as="geometry">
            <mxPoint x="265" y="1810" as="sourcePoint" />
            <mxPoint x="245" y="1750" as="targetPoint" />
            <Array as="points">
              <mxPoint x="185" y="1950" />
              <mxPoint x="135" y="1950" />
            </Array>
          </mxGeometry>
        </mxCell>
        <mxCell id="UFIIIXsz1D7t0Zp7uZU6-242" value="si/no" style="html=1;verticalAlign=bottom;endArrow=open;dashed=1;endSize=8;curved=0;rounded=0;exitX=1;exitY=1;exitDx=0;exitDy=-5;exitPerimeter=0;" parent="1" source="UFIIIXsz1D7t0Zp7uZU6-194" target="UFIIIXsz1D7t0Zp7uZU6-196" edge="1">
          <mxGeometry relative="1" as="geometry">
            <mxPoint x="275" y="1830" as="sourcePoint" />
            <mxPoint x="195" y="1830" as="targetPoint" />
            <Array as="points">
              <mxPoint x="195" y="1975" />
            </Array>
          </mxGeometry>
        </mxCell>
        <mxCell id="UFIIIXsz1D7t0Zp7uZU6-243" value="solicitar y registrar recibo" style="html=1;verticalAlign=bottom;startArrow=oval;startFill=1;endArrow=block;startSize=8;curved=0;rounded=0;" parent="1" source="UFIIIXsz1D7t0Zp7uZU6-196" target="UFIIIXsz1D7t0Zp7uZU6-207" edge="1">
          <mxGeometry width="60" relative="1" as="geometry">
            <mxPoint x="275" y="1840" as="sourcePoint" />
            <mxPoint x="335" y="1840" as="targetPoint" />
          </mxGeometry>
        </mxCell>
        <mxCell id="UFIIIXsz1D7t0Zp7uZU6-246" value="devolver informacion de operacion" style="html=1;verticalAlign=bottom;endArrow=open;dashed=1;endSize=8;curved=0;rounded=0;" parent="1" source="UFIIIXsz1D7t0Zp7uZU6-201" target="UFIIIXsz1D7t0Zp7uZU6-196" edge="1">
          <mxGeometry relative="1" as="geometry">
            <mxPoint x="435" y="1920" as="sourcePoint" />
            <mxPoint x="355" y="1920" as="targetPoint" />
            <Array as="points">
              <mxPoint x="395" y="2080" />
            </Array>
          </mxGeometry>
        </mxCell>
        <mxCell id="UFIIIXsz1D7t0Zp7uZU6-247" value="imprimir/mostrar recibo" style="html=1;verticalAlign=bottom;endArrow=open;dashed=1;endSize=8;curved=0;rounded=0;" parent="1" source="UFIIIXsz1D7t0Zp7uZU6-196" target="UFIIIXsz1D7t0Zp7uZU6-190" edge="1">
          <mxGeometry relative="1" as="geometry">
            <mxPoint x="245" y="1930" as="sourcePoint" />
            <mxPoint x="165" y="1930" as="targetPoint" />
            <Array as="points">
              <mxPoint x="205" y="2080" />
            </Array>
          </mxGeometry>
        </mxCell>
        <mxCell id="UFIIIXsz1D7t0Zp7uZU6-248" value="retirar tarjeta" style="html=1;verticalAlign=bottom;endArrow=open;dashed=1;endSize=8;curved=0;rounded=0;" parent="1" source="UFIIIXsz1D7t0Zp7uZU6-195" target="UFIIIXsz1D7t0Zp7uZU6-190" edge="1">
          <mxGeometry relative="1" as="geometry">
            <mxPoint x="215" y="1910" as="sourcePoint" />
            <mxPoint x="135" y="1910" as="targetPoint" />
            <Array as="points">
              <mxPoint x="205" y="2130" />
            </Array>
          </mxGeometry>
        </mxCell>
        <mxCell id="UFIIIXsz1D7t0Zp7uZU6-250" value="solicitar depositar dinero" style="html=1;verticalAlign=bottom;startArrow=oval;startFill=1;endArrow=block;startSize=8;curved=0;rounded=0;" parent="1" source="UFIIIXsz1D7t0Zp7uZU6-141" target="UFIIIXsz1D7t0Zp7uZU6-131" edge="1">
          <mxGeometry width="60" relative="1" as="geometry">
            <mxPoint x="1120" y="612" as="sourcePoint" />
            <mxPoint x="1180" y="612" as="targetPoint" />
          </mxGeometry>
        </mxCell>
        <mxCell id="UFIIIXsz1D7t0Zp7uZU6-251" value="dinero depositado" style="html=1;verticalAlign=bottom;endArrow=open;dashed=1;endSize=8;curved=0;rounded=0;" parent="1" source="UFIIIXsz1D7t0Zp7uZU6-131" target="UFIIIXsz1D7t0Zp7uZU6-141" edge="1">
          <mxGeometry relative="1" as="geometry">
            <mxPoint x="1190" y="612" as="sourcePoint" />
            <mxPoint x="1110" y="612" as="targetPoint" />
            <Array as="points">
              <mxPoint x="1050" y="622" />
            </Array>
          </mxGeometry>
        </mxCell>
        <mxCell id="UFIIIXsz1D7t0Zp7uZU6-151" value="" style="html=1;points=[[0,0,0,0,5],[0,1,0,0,-5],[1,0,0,0,5],[1,1,0,0,-5]];perimeter=orthogonalPerimeter;outlineConnect=0;targetShapes=umlLifeline;portConstraint=eastwest;newEdgeStyle={&quot;curved&quot;:0,&quot;rounded&quot;:0};" parent="1" vertex="1">
          <mxGeometry x="1585" y="682" width="10" height="60" as="geometry" />
        </mxCell>
        <mxCell id="UFIIIXsz1D7t0Zp7uZU6-254" value="verificar cantidad satisfacida" style="html=1;verticalAlign=bottom;startArrow=oval;startFill=1;endArrow=block;startSize=8;curved=0;rounded=0;entryX=0;entryY=0;entryDx=0;entryDy=5;entryPerimeter=0;" parent="1" source="UFIIIXsz1D7t0Zp7uZU6-141" target="UFIIIXsz1D7t0Zp7uZU6-255" edge="1">
          <mxGeometry width="60" relative="1" as="geometry">
            <mxPoint x="1290" y="582" as="sourcePoint" />
            <mxPoint x="1350" y="582" as="targetPoint" />
            <Array as="points">
              <mxPoint x="1240" y="622" />
            </Array>
          </mxGeometry>
        </mxCell>
        <mxCell id="UFIIIXsz1D7t0Zp7uZU6-256" value="confirmacion" style="html=1;verticalAlign=bottom;endArrow=open;dashed=1;endSize=8;curved=0;rounded=0;exitX=0;exitY=1;exitDx=0;exitDy=-5;exitPerimeter=0;" parent="1" source="UFIIIXsz1D7t0Zp7uZU6-255" target="UFIIIXsz1D7t0Zp7uZU6-137" edge="1">
          <mxGeometry relative="1" as="geometry">
            <mxPoint x="1330" y="662" as="sourcePoint" />
            <mxPoint x="1250" y="662" as="targetPoint" />
            <Array as="points">
              <mxPoint x="1240" y="642" />
            </Array>
          </mxGeometry>
        </mxCell>
        <mxCell id="UFIIIXsz1D7t0Zp7uZU6-257" value="" style="html=1;verticalAlign=bottom;endArrow=open;dashed=1;endSize=8;curved=0;rounded=0;" parent="1" source="UFIIIXsz1D7t0Zp7uZU6-136" target="UFIIIXsz1D7t0Zp7uZU6-258" edge="1">
          <mxGeometry relative="1" as="geometry">
            <mxPoint x="1140" y="672" as="sourcePoint" />
            <mxPoint x="1355" y="672" as="targetPoint" />
            <Array as="points">
              <mxPoint x="1250" y="672" />
            </Array>
          </mxGeometry>
        </mxCell>
        <mxCell id="UFIIIXsz1D7t0Zp7uZU6-259" value="resultado operacion" style="html=1;verticalAlign=bottom;endArrow=open;dashed=1;endSize=8;curved=0;rounded=0;exitX=0;exitY=1;exitDx=0;exitDy=-5;exitPerimeter=0;" parent="1" source="UFIIIXsz1D7t0Zp7uZU6-258" target="UFIIIXsz1D7t0Zp7uZU6-136" edge="1">
          <mxGeometry relative="1" as="geometry">
            <mxPoint x="1300" y="722" as="sourcePoint" />
            <mxPoint x="1220" y="722" as="targetPoint" />
            <Array as="points">
              <mxPoint x="1240" y="702" />
            </Array>
          </mxGeometry>
        </mxCell>
        <mxCell id="UFIIIXsz1D7t0Zp7uZU6-260" value="resultado operacion" style="html=1;verticalAlign=bottom;endArrow=open;dashed=1;endSize=8;curved=0;rounded=0;" parent="1" source="UFIIIXsz1D7t0Zp7uZU6-136" target="UFIIIXsz1D7t0Zp7uZU6-131" edge="1">
          <mxGeometry relative="1" as="geometry">
            <mxPoint x="1140" y="662" as="sourcePoint" />
            <mxPoint x="1060" y="662" as="targetPoint" />
            <Array as="points">
              <mxPoint x="1060" y="702" />
            </Array>
          </mxGeometry>
        </mxCell>
        <mxCell id="UFIIIXsz1D7t0Zp7uZU6-261" value="solicitar numero de entradas / ubicacion" style="html=1;verticalAlign=bottom;startArrow=oval;startFill=1;endArrow=block;startSize=8;curved=0;rounded=0;" parent="1" source="UFIIIXsz1D7t0Zp7uZU6-201" target="UFIIIXsz1D7t0Zp7uZU6-196" edge="1">
          <mxGeometry width="60" relative="1" as="geometry">
            <mxPoint x="285" y="1700" as="sourcePoint" />
            <mxPoint x="345" y="1700" as="targetPoint" />
            <Array as="points">
              <mxPoint x="405" y="1730" />
            </Array>
          </mxGeometry>
        </mxCell>
        <mxCell id="UFIIIXsz1D7t0Zp7uZU6-264" value="solicitar numero de entradas/&lt;div&gt;ubicacion&lt;/div&gt;" style="html=1;verticalAlign=bottom;startArrow=oval;startFill=1;endArrow=block;startSize=8;curved=0;rounded=0;exitX=0;exitY=0;exitDx=0;exitDy=5;exitPerimeter=0;" parent="1" source="UFIIIXsz1D7t0Zp7uZU6-262" target="UFIIIXsz1D7t0Zp7uZU6-190" edge="1">
          <mxGeometry width="60" relative="1" as="geometry">
            <mxPoint x="205" y="1740" as="sourcePoint" />
            <mxPoint x="265" y="1740" as="targetPoint" />
          </mxGeometry>
        </mxCell>
        <mxCell id="UFIIIXsz1D7t0Zp7uZU6-266" value="datos digitados" style="html=1;verticalAlign=bottom;endArrow=open;dashed=1;endSize=8;curved=0;rounded=0;exitX=1;exitY=1;exitDx=0;exitDy=-5;exitPerimeter=0;" parent="1" source="UFIIIXsz1D7t0Zp7uZU6-265" target="UFIIIXsz1D7t0Zp7uZU6-262" edge="1">
          <mxGeometry relative="1" as="geometry">
            <mxPoint x="305" y="1700" as="sourcePoint" />
            <mxPoint x="385" y="1700" as="targetPoint" />
          </mxGeometry>
        </mxCell>
        <mxCell id="UFIIIXsz1D7t0Zp7uZU6-267" value="verificar validez de datos" style="html=1;verticalAlign=bottom;endArrow=open;dashed=1;endSize=8;curved=0;rounded=0;exitX=1;exitY=1;exitDx=0;exitDy=-5;exitPerimeter=0;" parent="1" source="UFIIIXsz1D7t0Zp7uZU6-262" target="UFIIIXsz1D7t0Zp7uZU6-201" edge="1">
          <mxGeometry relative="1" as="geometry">
            <mxPoint x="345" y="1780" as="sourcePoint" />
            <mxPoint x="425" y="1780" as="targetPoint" />
          </mxGeometry>
        </mxCell>
        <mxCell id="UFIIIXsz1D7t0Zp7uZU6-269" value="datos validos/invalidos/&lt;div&gt;no disponibles&lt;/div&gt;" style="html=1;verticalAlign=bottom;endArrow=open;dashed=1;endSize=8;curved=0;rounded=0;" parent="1" source="UFIIIXsz1D7t0Zp7uZU6-201" target="UFIIIXsz1D7t0Zp7uZU6-195" edge="1">
          <mxGeometry relative="1" as="geometry">
            <mxPoint x="445" y="1800" as="sourcePoint" />
            <mxPoint x="365" y="1800" as="targetPoint" />
            <Array as="points">
              <mxPoint x="385" y="1800" />
            </Array>
          </mxGeometry>
        </mxCell>
        <mxCell id="UFIIIXsz1D7t0Zp7uZU6-270" value="datos validos/invalidos/&lt;div&gt;no disponibles&lt;/div&gt;" style="html=1;verticalAlign=bottom;endArrow=open;dashed=1;endSize=8;curved=0;rounded=0;" parent="1" source="UFIIIXsz1D7t0Zp7uZU6-196" target="UFIIIXsz1D7t0Zp7uZU6-190" edge="1">
          <mxGeometry relative="1" as="geometry">
            <mxPoint x="295" y="1800" as="sourcePoint" />
            <mxPoint x="75" y="1800" as="targetPoint" />
            <Array as="points">
              <mxPoint x="185" y="1800" />
            </Array>
          </mxGeometry>
        </mxCell>
        <mxCell id="UFIIIXsz1D7t0Zp7uZU6-271" value="confirmacion de pago" style="html=1;verticalAlign=bottom;startArrow=oval;startFill=1;endArrow=block;startSize=8;curved=0;rounded=0;" parent="1" source="UFIIIXsz1D7t0Zp7uZU6-201" target="UFIIIXsz1D7t0Zp7uZU6-195" edge="1">
          <mxGeometry width="60" relative="1" as="geometry">
            <mxPoint x="425" y="1790" as="sourcePoint" />
            <mxPoint x="365" y="1790" as="targetPoint" />
            <Array as="points">
              <mxPoint x="385" y="1840" />
            </Array>
          </mxGeometry>
        </mxCell>
        <mxCell id="UFIIIXsz1D7t0Zp7uZU6-272" value="si/no efectuar operacion" style="html=1;verticalAlign=bottom;endArrow=open;dashed=1;endSize=8;curved=0;rounded=0;exitX=1;exitY=1;exitDx=0;exitDy=-5;exitPerimeter=0;" parent="1" source="UFIIIXsz1D7t0Zp7uZU6-273" target="UFIIIXsz1D7t0Zp7uZU6-204" edge="1">
          <mxGeometry relative="1" as="geometry">
            <mxPoint x="355" y="1870" as="sourcePoint" />
            <mxPoint x="295" y="1850" as="targetPoint" />
          </mxGeometry>
        </mxCell>
        <mxCell id="UFIIIXsz1D7t0Zp7uZU6-275" value="confirmacion de pago" style="html=1;verticalAlign=bottom;startArrow=oval;startFill=1;endArrow=block;startSize=8;curved=0;rounded=0;" parent="1" edge="1">
          <mxGeometry width="60" relative="1" as="geometry">
            <mxPoint x="275" y="1840" as="sourcePoint" />
            <mxPoint x="85" y="1840" as="targetPoint" />
            <Array as="points">
              <mxPoint x="195" y="1840" />
            </Array>
          </mxGeometry>
        </mxCell>
        <mxCell id="UFIIIXsz1D7t0Zp7uZU6-276" value="si/no" style="html=1;verticalAlign=bottom;endArrow=open;dashed=1;endSize=8;curved=0;rounded=0;exitX=1;exitY=1;exitDx=0;exitDy=-5;exitPerimeter=0;" parent="1" source="UFIIIXsz1D7t0Zp7uZU6-274" target="UFIIIXsz1D7t0Zp7uZU6-273" edge="1">
          <mxGeometry relative="1" as="geometry">
            <mxPoint x="95" y="1865" as="sourcePoint" />
            <mxPoint x="300" y="1865" as="targetPoint" />
          </mxGeometry>
        </mxCell>
        <mxCell id="UFIIIXsz1D7t0Zp7uZU6-282" value="registrar movimiento de dinero" style="html=1;verticalAlign=bottom;startArrow=oval;startFill=1;endArrow=block;startSize=8;curved=0;rounded=0;" parent="1" target="UFIIIXsz1D7t0Zp7uZU6-208" edge="1">
          <mxGeometry width="60" relative="1" as="geometry">
            <mxPoint x="495" y="1880" as="sourcePoint" />
            <mxPoint x="555" y="1880" as="targetPoint" />
          </mxGeometry>
        </mxCell>
        <mxCell id="UFIIIXsz1D7t0Zp7uZU6-284" value="confirmar movimiento de dinero" style="html=1;verticalAlign=bottom;endArrow=open;dashed=1;endSize=8;curved=0;rounded=0;entryX=1;entryY=1;entryDx=0;entryDy=-5;entryPerimeter=0;" parent="1" target="UFIIIXsz1D7t0Zp7uZU6-281" edge="1">
          <mxGeometry relative="1" as="geometry">
            <mxPoint x="725" y="1920" as="sourcePoint" />
            <mxPoint x="645" y="1920" as="targetPoint" />
            <Array as="points">
              <mxPoint x="605" y="1920" />
            </Array>
          </mxGeometry>
        </mxCell>
        <mxCell id="UFIIIXsz1D7t0Zp7uZU6-285" value="compra si/no efectuada" style="html=1;verticalAlign=bottom;endArrow=open;dashed=1;endSize=8;curved=0;rounded=0;" parent="1" target="UFIIIXsz1D7t0Zp7uZU6-195" edge="1">
          <mxGeometry relative="1" as="geometry">
            <mxPoint x="485" y="1900" as="sourcePoint" />
            <mxPoint x="405" y="1900" as="targetPoint" />
          </mxGeometry>
        </mxCell>
        <mxCell id="UFIIIXsz1D7t0Zp7uZU6-286" value="confirmacion de compra" style="html=1;verticalAlign=bottom;endArrow=open;dashed=1;endSize=8;curved=0;rounded=0;" parent="1" target="UFIIIXsz1D7t0Zp7uZU6-190" edge="1">
          <mxGeometry relative="1" as="geometry">
            <mxPoint x="275" y="1900" as="sourcePoint" />
            <mxPoint x="195" y="1900" as="targetPoint" />
          </mxGeometry>
        </mxCell>
        <mxCell id="UFIIIXsz1D7t0Zp7uZU6-287" value="" style="shape=umlLifeline;perimeter=lifelinePerimeter;whiteSpace=wrap;html=1;container=1;dropTarget=0;collapsible=0;recursiveResize=0;outlineConnect=0;portConstraint=eastwest;newEdgeStyle={&quot;curved&quot;:0,&quot;rounded&quot;:0};participant=umlActor;" parent="1" vertex="1">
          <mxGeometry x="925" y="1290" width="20" height="750" as="geometry" />
        </mxCell>
        <mxCell id="UFIIIXsz1D7t0Zp7uZU6-288" value="" style="html=1;points=[[0,0,0,0,5],[0,1,0,0,-5],[1,0,0,0,5],[1,1,0,0,-5]];perimeter=orthogonalPerimeter;outlineConnect=0;targetShapes=umlLifeline;portConstraint=eastwest;newEdgeStyle={&quot;curved&quot;:0,&quot;rounded&quot;:0};" parent="UFIIIXsz1D7t0Zp7uZU6-287" vertex="1">
          <mxGeometry x="5" y="150" width="10" height="30" as="geometry" />
        </mxCell>
        <mxCell id="UFIIIXsz1D7t0Zp7uZU6-289" value="" style="html=1;points=[[0,0,0,0,5],[0,1,0,0,-5],[1,0,0,0,5],[1,1,0,0,-5]];perimeter=orthogonalPerimeter;outlineConnect=0;targetShapes=umlLifeline;portConstraint=eastwest;newEdgeStyle={&quot;curved&quot;:0,&quot;rounded&quot;:0};" parent="UFIIIXsz1D7t0Zp7uZU6-287" vertex="1">
          <mxGeometry x="5" y="260" width="10" height="40" as="geometry" />
        </mxCell>
        <mxCell id="UFIIIXsz1D7t0Zp7uZU6-291" value="" style="html=1;points=[[0,0,0,0,5],[0,1,0,0,-5],[1,0,0,0,5],[1,1,0,0,-5]];perimeter=orthogonalPerimeter;outlineConnect=0;targetShapes=umlLifeline;portConstraint=eastwest;newEdgeStyle={&quot;curved&quot;:0,&quot;rounded&quot;:0};" parent="UFIIIXsz1D7t0Zp7uZU6-287" vertex="1">
          <mxGeometry x="5" y="540" width="10" height="30" as="geometry" />
        </mxCell>
        <mxCell id="UFIIIXsz1D7t0Zp7uZU6-292" value="Cajero" style="shape=umlLifeline;perimeter=lifelinePerimeter;whiteSpace=wrap;html=1;container=1;dropTarget=0;collapsible=0;recursiveResize=0;outlineConnect=0;portConstraint=eastwest;newEdgeStyle={&quot;curved&quot;:0,&quot;rounded&quot;:0};" parent="1" vertex="1">
          <mxGeometry x="1075" y="1290" width="100" height="750" as="geometry" />
        </mxCell>
        <mxCell id="UFIIIXsz1D7t0Zp7uZU6-293" value="" style="html=1;points=[[0,0,0,0,5],[0,1,0,0,-5],[1,0,0,0,5],[1,1,0,0,-5]];perimeter=orthogonalPerimeter;outlineConnect=0;targetShapes=umlLifeline;portConstraint=eastwest;newEdgeStyle={&quot;curved&quot;:0,&quot;rounded&quot;:0};" parent="UFIIIXsz1D7t0Zp7uZU6-292" vertex="1">
          <mxGeometry x="45" y="80" width="10" height="620" as="geometry" />
        </mxCell>
        <mxCell id="UFIIIXsz1D7t0Zp7uZU6-294" value="" style="html=1;points=[[0,0,0,0,5],[0,1,0,0,-5],[1,0,0,0,5],[1,1,0,0,-5]];perimeter=orthogonalPerimeter;outlineConnect=0;targetShapes=umlLifeline;portConstraint=eastwest;newEdgeStyle={&quot;curved&quot;:0,&quot;rounded&quot;:0};" parent="UFIIIXsz1D7t0Zp7uZU6-292" vertex="1">
          <mxGeometry x="50" y="80" width="10" height="40" as="geometry" />
        </mxCell>
        <mxCell id="UFIIIXsz1D7t0Zp7uZU6-295" value="" style="html=1;points=[[0,0,0,0,5],[0,1,0,0,-5],[1,0,0,0,5],[1,1,0,0,-5]];perimeter=orthogonalPerimeter;outlineConnect=0;targetShapes=umlLifeline;portConstraint=eastwest;newEdgeStyle={&quot;curved&quot;:0,&quot;rounded&quot;:0};" parent="UFIIIXsz1D7t0Zp7uZU6-292" vertex="1">
          <mxGeometry x="40" y="150" width="10" height="80" as="geometry" />
        </mxCell>
        <mxCell id="UFIIIXsz1D7t0Zp7uZU6-296" value="" style="html=1;points=[[0,0,0,0,5],[0,1,0,0,-5],[1,0,0,0,5],[1,1,0,0,-5]];perimeter=orthogonalPerimeter;outlineConnect=0;targetShapes=umlLifeline;portConstraint=eastwest;newEdgeStyle={&quot;curved&quot;:0,&quot;rounded&quot;:0};" parent="UFIIIXsz1D7t0Zp7uZU6-292" vertex="1">
          <mxGeometry x="50" y="260" width="10" height="40" as="geometry" />
        </mxCell>
        <mxCell id="UFIIIXsz1D7t0Zp7uZU6-298" value="Cuenta" style="shape=umlLifeline;perimeter=lifelinePerimeter;whiteSpace=wrap;html=1;container=1;dropTarget=0;collapsible=0;recursiveResize=0;outlineConnect=0;portConstraint=eastwest;newEdgeStyle={&quot;curved&quot;:0,&quot;rounded&quot;:0};" parent="1" vertex="1">
          <mxGeometry x="1295" y="1290" width="100" height="750" as="geometry" />
        </mxCell>
        <mxCell id="UFIIIXsz1D7t0Zp7uZU6-299" value="" style="html=1;points=[[0,0,0,0,5],[0,1,0,0,-5],[1,0,0,0,5],[1,1,0,0,-5]];perimeter=orthogonalPerimeter;outlineConnect=0;targetShapes=umlLifeline;portConstraint=eastwest;newEdgeStyle={&quot;curved&quot;:0,&quot;rounded&quot;:0};" parent="UFIIIXsz1D7t0Zp7uZU6-298" vertex="1">
          <mxGeometry x="45" y="100" width="10" height="20" as="geometry" />
        </mxCell>
        <mxCell id="UFIIIXsz1D7t0Zp7uZU6-300" value="" style="html=1;points=[[0,0,0,0,5],[0,1,0,0,-5],[1,0,0,0,5],[1,1,0,0,-5]];perimeter=orthogonalPerimeter;outlineConnect=0;targetShapes=umlLifeline;portConstraint=eastwest;newEdgeStyle={&quot;curved&quot;:0,&quot;rounded&quot;:0};" parent="UFIIIXsz1D7t0Zp7uZU6-298" vertex="1">
          <mxGeometry x="45" y="180" width="10" height="20" as="geometry" />
        </mxCell>
        <mxCell id="UFIIIXsz1D7t0Zp7uZU6-301" value="" style="html=1;points=[[0,0,0,0,5],[0,1,0,0,-5],[1,0,0,0,5],[1,1,0,0,-5]];perimeter=orthogonalPerimeter;outlineConnect=0;targetShapes=umlLifeline;portConstraint=eastwest;newEdgeStyle={&quot;curved&quot;:0,&quot;rounded&quot;:0};" parent="UFIIIXsz1D7t0Zp7uZU6-298" vertex="1">
          <mxGeometry x="45" y="300" width="10" height="150" as="geometry" />
        </mxCell>
        <mxCell id="UFIIIXsz1D7t0Zp7uZU6-304" value="" style="html=1;points=[[0,0,0,0,5],[0,1,0,0,-5],[1,0,0,0,5],[1,1,0,0,-5]];perimeter=orthogonalPerimeter;outlineConnect=0;targetShapes=umlLifeline;portConstraint=eastwest;newEdgeStyle={&quot;curved&quot;:0,&quot;rounded&quot;:0};" parent="UFIIIXsz1D7t0Zp7uZU6-298" vertex="1">
          <mxGeometry x="40" y="570" width="10" height="80" as="geometry" />
        </mxCell>
        <mxCell id="UFIIIXsz1D7t0Zp7uZU6-305" value="Banco" style="shape=umlLifeline;perimeter=lifelinePerimeter;whiteSpace=wrap;html=1;container=1;dropTarget=0;collapsible=0;recursiveResize=0;outlineConnect=0;portConstraint=eastwest;newEdgeStyle={&quot;curved&quot;:0,&quot;rounded&quot;:0};" parent="1" vertex="1">
          <mxGeometry x="1525" y="1290" width="100" height="750" as="geometry" />
        </mxCell>
        <mxCell id="UFIIIXsz1D7t0Zp7uZU6-306" value="" style="html=1;points=[[0,0,0,0,5],[0,1,0,0,-5],[1,0,0,0,5],[1,1,0,0,-5]];perimeter=orthogonalPerimeter;outlineConnect=0;targetShapes=umlLifeline;portConstraint=eastwest;newEdgeStyle={&quot;curved&quot;:0,&quot;rounded&quot;:0};" parent="UFIIIXsz1D7t0Zp7uZU6-305" vertex="1">
          <mxGeometry x="45" y="200" width="10" height="30" as="geometry" />
        </mxCell>
        <mxCell id="UFIIIXsz1D7t0Zp7uZU6-309" value="SECUENCIA DE CONSULTA DE SALDO" style="text;align=center;fontStyle=1;verticalAlign=middle;spacingLeft=3;spacingRight=3;strokeColor=none;rotatable=0;points=[[0,0.5],[1,0.5]];portConstraint=eastwest;html=1;fontSize=26;" parent="1" vertex="1">
          <mxGeometry x="1145" y="1170" width="200" height="96" as="geometry" />
        </mxCell>
        <mxCell id="UFIIIXsz1D7t0Zp7uZU6-310" value="Insertar Tarjeta" style="html=1;verticalAlign=bottom;startArrow=oval;startFill=1;endArrow=block;startSize=8;curved=0;rounded=0;" parent="1" source="UFIIIXsz1D7t0Zp7uZU6-287" target="UFIIIXsz1D7t0Zp7uZU6-292" edge="1">
          <mxGeometry width="60" relative="1" as="geometry">
            <mxPoint x="1085" y="1450" as="sourcePoint" />
            <mxPoint x="1145" y="1450" as="targetPoint" />
            <Array as="points">
              <mxPoint x="1025" y="1370" />
            </Array>
          </mxGeometry>
        </mxCell>
        <mxCell id="UFIIIXsz1D7t0Zp7uZU6-311" value="validacion de tarjeta" style="html=1;verticalAlign=bottom;startArrow=oval;startFill=1;endArrow=block;startSize=8;curved=0;rounded=0;" parent="1" source="UFIIIXsz1D7t0Zp7uZU6-293" target="UFIIIXsz1D7t0Zp7uZU6-298" edge="1">
          <mxGeometry width="60" relative="1" as="geometry">
            <mxPoint x="1235" y="1440" as="sourcePoint" />
            <mxPoint x="1295" y="1440" as="targetPoint" />
            <Array as="points">
              <mxPoint x="1235" y="1390" />
            </Array>
          </mxGeometry>
        </mxCell>
        <mxCell id="UFIIIXsz1D7t0Zp7uZU6-312" value="tarjeta valida/invalida" style="html=1;verticalAlign=bottom;endArrow=open;dashed=1;endSize=8;curved=0;rounded=0;exitX=0;exitY=1;exitDx=0;exitDy=-5;exitPerimeter=0;" parent="1" source="UFIIIXsz1D7t0Zp7uZU6-299" target="UFIIIXsz1D7t0Zp7uZU6-292" edge="1">
          <mxGeometry relative="1" as="geometry">
            <mxPoint x="1305" y="1440" as="sourcePoint" />
            <mxPoint x="1225" y="1440" as="targetPoint" />
          </mxGeometry>
        </mxCell>
        <mxCell id="UFIIIXsz1D7t0Zp7uZU6-313" value="tarjeta invalida utilizada" style="html=1;verticalAlign=bottom;startArrow=oval;startFill=1;endArrow=block;startSize=8;curved=0;rounded=0;exitX=1;exitY=1;exitDx=0;exitDy=-5;exitPerimeter=0;" parent="1" source="UFIIIXsz1D7t0Zp7uZU6-299" target="UFIIIXsz1D7t0Zp7uZU6-305" edge="1">
          <mxGeometry width="60" relative="1" as="geometry">
            <mxPoint x="1295" y="1450" as="sourcePoint" />
            <mxPoint x="1355" y="1450" as="targetPoint" />
          </mxGeometry>
        </mxCell>
        <mxCell id="UFIIIXsz1D7t0Zp7uZU6-314" value="Tarjeta aceptada/rechazada" style="html=1;verticalAlign=bottom;endArrow=open;dashed=1;endSize=8;curved=0;rounded=0;" parent="1" source="UFIIIXsz1D7t0Zp7uZU6-293" target="UFIIIXsz1D7t0Zp7uZU6-287" edge="1">
          <mxGeometry x="0.024" relative="1" as="geometry">
            <mxPoint x="1145" y="1420" as="sourcePoint" />
            <mxPoint x="1065" y="1420" as="targetPoint" />
            <Array as="points">
              <mxPoint x="1025" y="1410" />
            </Array>
            <mxPoint as="offset" />
          </mxGeometry>
        </mxCell>
        <mxCell id="UFIIIXsz1D7t0Zp7uZU6-315" value="solicitud de pin para iniciar sesion" style="html=1;verticalAlign=bottom;startArrow=oval;startFill=1;endArrow=block;startSize=8;curved=0;rounded=0;" parent="1" source="UFIIIXsz1D7t0Zp7uZU6-298" target="UFIIIXsz1D7t0Zp7uZU6-292" edge="1">
          <mxGeometry width="60" relative="1" as="geometry">
            <mxPoint x="1235" y="1390" as="sourcePoint" />
            <mxPoint x="1295" y="1390" as="targetPoint" />
            <Array as="points">
              <mxPoint x="1235" y="1440" />
            </Array>
          </mxGeometry>
        </mxCell>
        <mxCell id="UFIIIXsz1D7t0Zp7uZU6-316" value="solicitar pin" style="html=1;verticalAlign=bottom;startArrow=oval;startFill=1;endArrow=block;startSize=8;curved=0;rounded=0;exitX=0;exitY=0;exitDx=0;exitDy=5;exitPerimeter=0;" parent="1" source="UFIIIXsz1D7t0Zp7uZU6-295" target="UFIIIXsz1D7t0Zp7uZU6-287" edge="1">
          <mxGeometry width="60" relative="1" as="geometry">
            <mxPoint x="1115" y="1400" as="sourcePoint" />
            <mxPoint x="1175" y="1400" as="targetPoint" />
          </mxGeometry>
        </mxCell>
        <mxCell id="UFIIIXsz1D7t0Zp7uZU6-317" value="Ingresar Pin" style="html=1;verticalAlign=bottom;endArrow=open;dashed=1;endSize=8;curved=0;rounded=0;exitX=1;exitY=1;exitDx=0;exitDy=-5;exitPerimeter=0;" parent="1" source="UFIIIXsz1D7t0Zp7uZU6-288" target="UFIIIXsz1D7t0Zp7uZU6-295" edge="1">
          <mxGeometry relative="1" as="geometry">
            <mxPoint x="1205" y="1460" as="sourcePoint" />
            <mxPoint x="1125" y="1460" as="targetPoint" />
          </mxGeometry>
        </mxCell>
        <mxCell id="UFIIIXsz1D7t0Zp7uZU6-318" value="verificacion de pin" style="html=1;verticalAlign=bottom;startArrow=oval;startFill=1;endArrow=block;startSize=8;curved=0;rounded=0;" parent="1" source="UFIIIXsz1D7t0Zp7uZU6-295" target="UFIIIXsz1D7t0Zp7uZU6-298" edge="1">
          <mxGeometry width="60" relative="1" as="geometry">
            <mxPoint x="1225" y="1460" as="sourcePoint" />
            <mxPoint x="1285" y="1460" as="targetPoint" />
            <Array as="points">
              <mxPoint x="1205" y="1470" />
            </Array>
          </mxGeometry>
        </mxCell>
        <mxCell id="UFIIIXsz1D7t0Zp7uZU6-319" value="pin valido/invalido" style="html=1;verticalAlign=bottom;endArrow=open;dashed=1;endSize=8;curved=0;rounded=0;" parent="1" source="UFIIIXsz1D7t0Zp7uZU6-298" target="UFIIIXsz1D7t0Zp7uZU6-292" edge="1">
          <mxGeometry relative="1" as="geometry">
            <mxPoint x="1295" y="1460" as="sourcePoint" />
            <mxPoint x="1215" y="1460" as="targetPoint" />
            <Array as="points">
              <mxPoint x="1285" y="1490" />
            </Array>
          </mxGeometry>
        </mxCell>
        <mxCell id="UFIIIXsz1D7t0Zp7uZU6-320" value="pin valido/invalido" style="html=1;verticalAlign=bottom;endArrow=open;dashed=1;endSize=8;curved=0;rounded=0;" parent="1" source="UFIIIXsz1D7t0Zp7uZU6-295" target="UFIIIXsz1D7t0Zp7uZU6-287" edge="1">
          <mxGeometry relative="1" as="geometry">
            <mxPoint x="1105" y="1490" as="sourcePoint" />
            <mxPoint x="1215" y="1460" as="targetPoint" />
            <Array as="points">
              <mxPoint x="1025" y="1490" />
            </Array>
          </mxGeometry>
        </mxCell>
        <mxCell id="UFIIIXsz1D7t0Zp7uZU6-321" value="notifica al banco/invalida tarjeta&lt;div&gt;por 3er intento&lt;/div&gt;" style="html=1;verticalAlign=bottom;startArrow=oval;startFill=1;endArrow=block;startSize=8;curved=0;rounded=0;" parent="1" source="UFIIIXsz1D7t0Zp7uZU6-298" target="UFIIIXsz1D7t0Zp7uZU6-305" edge="1">
          <mxGeometry width="60" relative="1" as="geometry">
            <mxPoint x="1385" y="1480" as="sourcePoint" />
            <mxPoint x="1445" y="1480" as="targetPoint" />
            <Array as="points">
              <mxPoint x="1455" y="1490" />
            </Array>
          </mxGeometry>
        </mxCell>
        <mxCell id="UFIIIXsz1D7t0Zp7uZU6-322" value="invalida la tarjeta" style="html=1;verticalAlign=bottom;endArrow=open;dashed=1;endSize=8;curved=0;rounded=0;" parent="1" source="UFIIIXsz1D7t0Zp7uZU6-305" target="UFIIIXsz1D7t0Zp7uZU6-292" edge="1">
          <mxGeometry x="0.5093" relative="1" as="geometry">
            <mxPoint x="1365" y="1520" as="sourcePoint" />
            <mxPoint x="1345" y="1520" as="targetPoint" />
            <Array as="points">
              <mxPoint x="1345" y="1520" />
            </Array>
            <mxPoint as="offset" />
          </mxGeometry>
        </mxCell>
        <mxCell id="UFIIIXsz1D7t0Zp7uZU6-323" value="notifica el bloqueo de la tarjeta" style="html=1;verticalAlign=bottom;endArrow=open;dashed=1;endSize=8;curved=0;rounded=0;" parent="1" source="UFIIIXsz1D7t0Zp7uZU6-295" target="UFIIIXsz1D7t0Zp7uZU6-287" edge="1">
          <mxGeometry relative="1" as="geometry">
            <mxPoint x="1315" y="1440" as="sourcePoint" />
            <mxPoint x="1235" y="1440" as="targetPoint" />
            <Array as="points">
              <mxPoint x="1025" y="1520" />
            </Array>
          </mxGeometry>
        </mxCell>
        <mxCell id="UFIIIXsz1D7t0Zp7uZU6-324" value="inicia sesion/solicita operacion" style="html=1;verticalAlign=bottom;startArrow=oval;startFill=1;endArrow=block;startSize=8;curved=0;rounded=0;exitX=0;exitY=0;exitDx=0;exitDy=5;exitPerimeter=0;" parent="1" source="UFIIIXsz1D7t0Zp7uZU6-296" target="UFIIIXsz1D7t0Zp7uZU6-287" edge="1">
          <mxGeometry width="60" relative="1" as="geometry">
            <mxPoint x="1145" y="1520" as="sourcePoint" />
            <mxPoint x="1205" y="1520" as="targetPoint" />
          </mxGeometry>
        </mxCell>
        <mxCell id="UFIIIXsz1D7t0Zp7uZU6-325" value="consulta saldo" style="html=1;verticalAlign=bottom;endArrow=open;dashed=1;endSize=8;curved=0;rounded=0;" parent="1" source="UFIIIXsz1D7t0Zp7uZU6-287" target="UFIIIXsz1D7t0Zp7uZU6-296" edge="1">
          <mxGeometry relative="1" as="geometry">
            <mxPoint x="1245" y="1510" as="sourcePoint" />
            <mxPoint x="1165" y="1510" as="targetPoint" />
            <Array as="points">
              <mxPoint x="1025" y="1590" />
            </Array>
          </mxGeometry>
        </mxCell>
        <mxCell id="UFIIIXsz1D7t0Zp7uZU6-326" value="solicitar consulta saldo" style="html=1;verticalAlign=bottom;startArrow=oval;startFill=1;endArrow=block;startSize=8;curved=0;rounded=0;" parent="1" source="UFIIIXsz1D7t0Zp7uZU6-292" target="UFIIIXsz1D7t0Zp7uZU6-298" edge="1">
          <mxGeometry width="60" relative="1" as="geometry">
            <mxPoint x="1285" y="1520" as="sourcePoint" />
            <mxPoint x="1345" y="1520" as="targetPoint" />
            <Array as="points">
              <mxPoint x="1235" y="1590" />
            </Array>
          </mxGeometry>
        </mxCell>
        <mxCell id="UFIIIXsz1D7t0Zp7uZU6-338" value="solicitud de recibo" style="html=1;verticalAlign=bottom;startArrow=oval;startFill=1;endArrow=block;startSize=8;curved=0;rounded=0;" parent="1" source="UFIIIXsz1D7t0Zp7uZU6-293" target="UFIIIXsz1D7t0Zp7uZU6-287" edge="1">
          <mxGeometry width="60" relative="1" as="geometry">
            <mxPoint x="1115" y="1830" as="sourcePoint" />
            <mxPoint x="1095" y="1770" as="targetPoint" />
            <Array as="points">
              <mxPoint x="1025" y="1830" />
            </Array>
          </mxGeometry>
        </mxCell>
        <mxCell id="UFIIIXsz1D7t0Zp7uZU6-339" value="si/no" style="html=1;verticalAlign=bottom;endArrow=open;dashed=1;endSize=8;curved=0;rounded=0;exitX=1;exitY=1;exitDx=0;exitDy=-5;exitPerimeter=0;" parent="1" source="UFIIIXsz1D7t0Zp7uZU6-291" target="UFIIIXsz1D7t0Zp7uZU6-292" edge="1">
          <mxGeometry relative="1" as="geometry">
            <mxPoint x="1125" y="1850" as="sourcePoint" />
            <mxPoint x="1045" y="1850" as="targetPoint" />
          </mxGeometry>
        </mxCell>
        <mxCell id="UFIIIXsz1D7t0Zp7uZU6-340" value="solicitar y registrar recibo" style="html=1;verticalAlign=bottom;startArrow=oval;startFill=1;endArrow=block;startSize=8;curved=0;rounded=0;" parent="1" target="UFIIIXsz1D7t0Zp7uZU6-304" edge="1">
          <mxGeometry width="60" relative="1" as="geometry">
            <mxPoint x="1125" y="1860" as="sourcePoint" />
            <mxPoint x="1185" y="1860" as="targetPoint" />
          </mxGeometry>
        </mxCell>
        <mxCell id="UFIIIXsz1D7t0Zp7uZU6-343" value="devolver informacion de operacion" style="html=1;verticalAlign=bottom;endArrow=open;dashed=1;endSize=8;curved=0;rounded=0;" parent="1" source="UFIIIXsz1D7t0Zp7uZU6-298" target="UFIIIXsz1D7t0Zp7uZU6-293" edge="1">
          <mxGeometry relative="1" as="geometry">
            <mxPoint x="1285" y="1940" as="sourcePoint" />
            <mxPoint x="1205" y="1940" as="targetPoint" />
            <Array as="points">
              <mxPoint x="1235" y="1940" />
            </Array>
          </mxGeometry>
        </mxCell>
        <mxCell id="UFIIIXsz1D7t0Zp7uZU6-344" value="imprimir/mostrar recibo" style="html=1;verticalAlign=bottom;endArrow=open;dashed=1;endSize=8;curved=0;rounded=0;" parent="1" source="UFIIIXsz1D7t0Zp7uZU6-293" target="UFIIIXsz1D7t0Zp7uZU6-287" edge="1">
          <mxGeometry relative="1" as="geometry">
            <mxPoint x="1095" y="1950" as="sourcePoint" />
            <mxPoint x="1015" y="1950" as="targetPoint" />
            <Array as="points">
              <mxPoint x="1055" y="1940" />
            </Array>
          </mxGeometry>
        </mxCell>
        <mxCell id="UFIIIXsz1D7t0Zp7uZU6-345" value="retirar tarjeta" style="html=1;verticalAlign=bottom;endArrow=open;dashed=1;endSize=8;curved=0;rounded=0;" parent="1" source="UFIIIXsz1D7t0Zp7uZU6-292" target="UFIIIXsz1D7t0Zp7uZU6-287" edge="1">
          <mxGeometry relative="1" as="geometry">
            <mxPoint x="1065" y="1930" as="sourcePoint" />
            <mxPoint x="985" y="1930" as="targetPoint" />
            <Array as="points">
              <mxPoint x="1055" y="1990" />
            </Array>
          </mxGeometry>
        </mxCell>
        <mxCell id="UFIIIXsz1D7t0Zp7uZU6-346" value="saldo consultado" style="html=1;verticalAlign=bottom;endArrow=open;dashed=1;endSize=8;curved=0;rounded=0;" parent="1" target="UFIIIXsz1D7t0Zp7uZU6-292" edge="1">
          <mxGeometry relative="1" as="geometry">
            <mxPoint x="1345" y="1740" as="sourcePoint" />
            <mxPoint x="1265" y="1740" as="targetPoint" />
          </mxGeometry>
        </mxCell>
        <mxCell id="UFIIIXsz1D7t0Zp7uZU6-347" value="saldo consultado" style="html=1;verticalAlign=bottom;endArrow=open;dashed=1;endSize=8;curved=0;rounded=0;" parent="1" target="UFIIIXsz1D7t0Zp7uZU6-287" edge="1">
          <mxGeometry relative="1" as="geometry">
            <mxPoint x="1125" y="1740" as="sourcePoint" />
            <mxPoint x="1045" y="1740" as="targetPoint" />
          </mxGeometry>
        </mxCell>
        <mxCell id="UFIIIXsz1D7t0Zp7uZU6-348" value="" style="shape=umlLifeline;perimeter=lifelinePerimeter;whiteSpace=wrap;html=1;container=1;dropTarget=0;collapsible=0;recursiveResize=0;outlineConnect=0;portConstraint=eastwest;newEdgeStyle={&quot;curved&quot;:0,&quot;rounded&quot;:0};participant=umlActor;" parent="1" vertex="1">
          <mxGeometry x="1775" y="181" width="20" height="910" as="geometry" />
        </mxCell>
        <mxCell id="UFIIIXsz1D7t0Zp7uZU6-349" value="" style="html=1;points=[[0,0,0,0,5],[0,1,0,0,-5],[1,0,0,0,5],[1,1,0,0,-5]];perimeter=orthogonalPerimeter;outlineConnect=0;targetShapes=umlLifeline;portConstraint=eastwest;newEdgeStyle={&quot;curved&quot;:0,&quot;rounded&quot;:0};" parent="UFIIIXsz1D7t0Zp7uZU6-348" vertex="1">
          <mxGeometry x="5" y="150" width="10" height="30" as="geometry" />
        </mxCell>
        <mxCell id="UFIIIXsz1D7t0Zp7uZU6-350" value="" style="html=1;points=[[0,0,0,0,5],[0,1,0,0,-5],[1,0,0,0,5],[1,1,0,0,-5]];perimeter=orthogonalPerimeter;outlineConnect=0;targetShapes=umlLifeline;portConstraint=eastwest;newEdgeStyle={&quot;curved&quot;:0,&quot;rounded&quot;:0};" parent="UFIIIXsz1D7t0Zp7uZU6-348" vertex="1">
          <mxGeometry x="5" y="260" width="10" height="40" as="geometry" />
        </mxCell>
        <mxCell id="UFIIIXsz1D7t0Zp7uZU6-351" value="" style="html=1;points=[[0,0,0,0,5],[0,1,0,0,-5],[1,0,0,0,5],[1,1,0,0,-5]];perimeter=orthogonalPerimeter;outlineConnect=0;targetShapes=umlLifeline;portConstraint=eastwest;newEdgeStyle={&quot;curved&quot;:0,&quot;rounded&quot;:0};" parent="UFIIIXsz1D7t0Zp7uZU6-348" vertex="1">
          <mxGeometry x="5" y="330" width="10" height="30" as="geometry" />
        </mxCell>
        <mxCell id="UFIIIXsz1D7t0Zp7uZU6-352" value="" style="html=1;points=[[0,0,0,0,5],[0,1,0,0,-5],[1,0,0,0,5],[1,1,0,0,-5]];perimeter=orthogonalPerimeter;outlineConnect=0;targetShapes=umlLifeline;portConstraint=eastwest;newEdgeStyle={&quot;curved&quot;:0,&quot;rounded&quot;:0};" parent="UFIIIXsz1D7t0Zp7uZU6-348" vertex="1">
          <mxGeometry x="5" y="680" width="10" height="30" as="geometry" />
        </mxCell>
        <mxCell id="UFIIIXsz1D7t0Zp7uZU6-353" value="" style="html=1;points=[[0,0,0,0,5],[0,1,0,0,-5],[1,0,0,0,5],[1,1,0,0,-5]];perimeter=orthogonalPerimeter;outlineConnect=0;targetShapes=umlLifeline;portConstraint=eastwest;newEdgeStyle={&quot;curved&quot;:0,&quot;rounded&quot;:0};" parent="UFIIIXsz1D7t0Zp7uZU6-348" vertex="1">
          <mxGeometry x="5" y="460" width="10" height="30" as="geometry" />
        </mxCell>
        <mxCell id="UFIIIXsz1D7t0Zp7uZU6-354" value="" style="html=1;points=[[0,0,0,0,5],[0,1,0,0,-5],[1,0,0,0,5],[1,1,0,0,-5]];perimeter=orthogonalPerimeter;outlineConnect=0;targetShapes=umlLifeline;portConstraint=eastwest;newEdgeStyle={&quot;curved&quot;:0,&quot;rounded&quot;:0};" parent="UFIIIXsz1D7t0Zp7uZU6-348" vertex="1">
          <mxGeometry x="5" y="570" width="10" height="20" as="geometry" />
        </mxCell>
        <mxCell id="UFIIIXsz1D7t0Zp7uZU6-355" value="Cajero" style="shape=umlLifeline;perimeter=lifelinePerimeter;whiteSpace=wrap;html=1;container=1;dropTarget=0;collapsible=0;recursiveResize=0;outlineConnect=0;portConstraint=eastwest;newEdgeStyle={&quot;curved&quot;:0,&quot;rounded&quot;:0};" parent="1" vertex="1">
          <mxGeometry x="1925" y="181" width="100" height="890" as="geometry" />
        </mxCell>
        <mxCell id="UFIIIXsz1D7t0Zp7uZU6-356" value="" style="html=1;points=[[0,0,0,0,5],[0,1,0,0,-5],[1,0,0,0,5],[1,1,0,0,-5]];perimeter=orthogonalPerimeter;outlineConnect=0;targetShapes=umlLifeline;portConstraint=eastwest;newEdgeStyle={&quot;curved&quot;:0,&quot;rounded&quot;:0};" parent="UFIIIXsz1D7t0Zp7uZU6-355" vertex="1">
          <mxGeometry x="45" y="80" width="10" height="780" as="geometry" />
        </mxCell>
        <mxCell id="UFIIIXsz1D7t0Zp7uZU6-357" value="" style="html=1;points=[[0,0,0,0,5],[0,1,0,0,-5],[1,0,0,0,5],[1,1,0,0,-5]];perimeter=orthogonalPerimeter;outlineConnect=0;targetShapes=umlLifeline;portConstraint=eastwest;newEdgeStyle={&quot;curved&quot;:0,&quot;rounded&quot;:0};" parent="UFIIIXsz1D7t0Zp7uZU6-355" vertex="1">
          <mxGeometry x="50" y="80" width="10" height="40" as="geometry" />
        </mxCell>
        <mxCell id="UFIIIXsz1D7t0Zp7uZU6-358" value="" style="html=1;points=[[0,0,0,0,5],[0,1,0,0,-5],[1,0,0,0,5],[1,1,0,0,-5]];perimeter=orthogonalPerimeter;outlineConnect=0;targetShapes=umlLifeline;portConstraint=eastwest;newEdgeStyle={&quot;curved&quot;:0,&quot;rounded&quot;:0};" parent="UFIIIXsz1D7t0Zp7uZU6-355" vertex="1">
          <mxGeometry x="40" y="150" width="10" height="80" as="geometry" />
        </mxCell>
        <mxCell id="UFIIIXsz1D7t0Zp7uZU6-359" value="" style="html=1;points=[[0,0,0,0,5],[0,1,0,0,-5],[1,0,0,0,5],[1,1,0,0,-5]];perimeter=orthogonalPerimeter;outlineConnect=0;targetShapes=umlLifeline;portConstraint=eastwest;newEdgeStyle={&quot;curved&quot;:0,&quot;rounded&quot;:0};" parent="UFIIIXsz1D7t0Zp7uZU6-355" vertex="1">
          <mxGeometry x="50" y="260" width="10" height="40" as="geometry" />
        </mxCell>
        <mxCell id="UFIIIXsz1D7t0Zp7uZU6-360" value="" style="html=1;points=[[0,0,0,0,5],[0,1,0,0,-5],[1,0,0,0,5],[1,1,0,0,-5]];perimeter=orthogonalPerimeter;outlineConnect=0;targetShapes=umlLifeline;portConstraint=eastwest;newEdgeStyle={&quot;curved&quot;:0,&quot;rounded&quot;:0};" parent="UFIIIXsz1D7t0Zp7uZU6-355" vertex="1">
          <mxGeometry x="40" y="320" width="10" height="50" as="geometry" />
        </mxCell>
        <mxCell id="UFIIIXsz1D7t0Zp7uZU6-361" value="" style="html=1;points=[[0,0,0,0,5],[0,1,0,0,-5],[1,0,0,0,5],[1,1,0,0,-5]];perimeter=orthogonalPerimeter;outlineConnect=0;targetShapes=umlLifeline;portConstraint=eastwest;newEdgeStyle={&quot;curved&quot;:0,&quot;rounded&quot;:0};" parent="UFIIIXsz1D7t0Zp7uZU6-355" vertex="1">
          <mxGeometry x="50" y="460" width="10" height="40" as="geometry" />
        </mxCell>
        <mxCell id="UFIIIXsz1D7t0Zp7uZU6-362" value="" style="html=1;points=[[0,0,0,0,5],[0,1,0,0,-5],[1,0,0,0,5],[1,1,0,0,-5]];perimeter=orthogonalPerimeter;outlineConnect=0;targetShapes=umlLifeline;portConstraint=eastwest;newEdgeStyle={&quot;curved&quot;:0,&quot;rounded&quot;:0};" parent="UFIIIXsz1D7t0Zp7uZU6-355" vertex="1">
          <mxGeometry x="50" y="570" width="10" height="30" as="geometry" />
        </mxCell>
        <mxCell id="UFIIIXsz1D7t0Zp7uZU6-363" value="Cuenta" style="shape=umlLifeline;perimeter=lifelinePerimeter;whiteSpace=wrap;html=1;container=1;dropTarget=0;collapsible=0;recursiveResize=0;outlineConnect=0;portConstraint=eastwest;newEdgeStyle={&quot;curved&quot;:0,&quot;rounded&quot;:0};" parent="1" vertex="1">
          <mxGeometry x="2145" y="181" width="100" height="900" as="geometry" />
        </mxCell>
        <mxCell id="UFIIIXsz1D7t0Zp7uZU6-364" value="" style="html=1;points=[[0,0,0,0,5],[0,1,0,0,-5],[1,0,0,0,5],[1,1,0,0,-5]];perimeter=orthogonalPerimeter;outlineConnect=0;targetShapes=umlLifeline;portConstraint=eastwest;newEdgeStyle={&quot;curved&quot;:0,&quot;rounded&quot;:0};" parent="UFIIIXsz1D7t0Zp7uZU6-363" vertex="1">
          <mxGeometry x="45" y="100" width="10" height="20" as="geometry" />
        </mxCell>
        <mxCell id="UFIIIXsz1D7t0Zp7uZU6-365" value="" style="html=1;points=[[0,0,0,0,5],[0,1,0,0,-5],[1,0,0,0,5],[1,1,0,0,-5]];perimeter=orthogonalPerimeter;outlineConnect=0;targetShapes=umlLifeline;portConstraint=eastwest;newEdgeStyle={&quot;curved&quot;:0,&quot;rounded&quot;:0};" parent="UFIIIXsz1D7t0Zp7uZU6-363" vertex="1">
          <mxGeometry x="45" y="180" width="10" height="20" as="geometry" />
        </mxCell>
        <mxCell id="UFIIIXsz1D7t0Zp7uZU6-366" value="" style="html=1;points=[[0,0,0,0,5],[0,1,0,0,-5],[1,0,0,0,5],[1,1,0,0,-5]];perimeter=orthogonalPerimeter;outlineConnect=0;targetShapes=umlLifeline;portConstraint=eastwest;newEdgeStyle={&quot;curved&quot;:0,&quot;rounded&quot;:0};" parent="UFIIIXsz1D7t0Zp7uZU6-363" vertex="1">
          <mxGeometry x="45" y="310" width="10" height="570" as="geometry" />
        </mxCell>
        <mxCell id="UFIIIXsz1D7t0Zp7uZU6-367" value="" style="html=1;points=[[0,0,0,0,5],[0,1,0,0,-5],[1,0,0,0,5],[1,1,0,0,-5]];perimeter=orthogonalPerimeter;outlineConnect=0;targetShapes=umlLifeline;portConstraint=eastwest;newEdgeStyle={&quot;curved&quot;:0,&quot;rounded&quot;:0};" parent="UFIIIXsz1D7t0Zp7uZU6-363" vertex="1">
          <mxGeometry x="40" y="370" width="10" height="50" as="geometry" />
        </mxCell>
        <mxCell id="UFIIIXsz1D7t0Zp7uZU6-368" value="" style="html=1;points=[[0,0,0,0,5],[0,1,0,0,-5],[1,0,0,0,5],[1,1,0,0,-5]];perimeter=orthogonalPerimeter;outlineConnect=0;targetShapes=umlLifeline;portConstraint=eastwest;newEdgeStyle={&quot;curved&quot;:0,&quot;rounded&quot;:0};" parent="UFIIIXsz1D7t0Zp7uZU6-363" vertex="1">
          <mxGeometry x="40" y="730" width="10" height="80" as="geometry" />
        </mxCell>
        <mxCell id="UFIIIXsz1D7t0Zp7uZU6-369" value="" style="html=1;points=[[0,0,0,0,5],[0,1,0,0,-5],[1,0,0,0,5],[1,1,0,0,-5]];perimeter=orthogonalPerimeter;outlineConnect=0;targetShapes=umlLifeline;portConstraint=eastwest;newEdgeStyle={&quot;curved&quot;:0,&quot;rounded&quot;:0};" parent="UFIIIXsz1D7t0Zp7uZU6-363" vertex="1">
          <mxGeometry x="40" y="490" width="10" height="40" as="geometry" />
        </mxCell>
        <mxCell id="UFIIIXsz1D7t0Zp7uZU6-370" value="solicitar&lt;div&gt;nuevamente&lt;/div&gt;" style="html=1;verticalAlign=bottom;startArrow=oval;startFill=1;endArrow=block;startSize=8;curved=0;rounded=0;" parent="UFIIIXsz1D7t0Zp7uZU6-363" source="UFIIIXsz1D7t0Zp7uZU6-366" target="UFIIIXsz1D7t0Zp7uZU6-363" edge="1">
          <mxGeometry width="60" relative="1" as="geometry">
            <mxPoint x="-20" y="480" as="sourcePoint" />
            <mxPoint x="170" y="500" as="targetPoint" />
            <Array as="points">
              <mxPoint x="70" y="595" />
              <mxPoint x="90" y="590" />
              <mxPoint x="90" y="460" />
            </Array>
          </mxGeometry>
        </mxCell>
        <mxCell id="UFIIIXsz1D7t0Zp7uZU6-371" value="" style="html=1;points=[[0,0,0,0,5],[0,1,0,0,-5],[1,0,0,0,5],[1,1,0,0,-5]];perimeter=orthogonalPerimeter;outlineConnect=0;targetShapes=umlLifeline;portConstraint=eastwest;newEdgeStyle={&quot;curved&quot;:0,&quot;rounded&quot;:0};" parent="UFIIIXsz1D7t0Zp7uZU6-363" vertex="1">
          <mxGeometry x="40" y="595" width="10" height="35" as="geometry" />
        </mxCell>
        <mxCell id="UFIIIXsz1D7t0Zp7uZU6-372" value="Banco" style="shape=umlLifeline;perimeter=lifelinePerimeter;whiteSpace=wrap;html=1;container=1;dropTarget=0;collapsible=0;recursiveResize=0;outlineConnect=0;portConstraint=eastwest;newEdgeStyle={&quot;curved&quot;:0,&quot;rounded&quot;:0};" parent="1" vertex="1">
          <mxGeometry x="2375" y="181" width="100" height="900" as="geometry" />
        </mxCell>
        <mxCell id="UFIIIXsz1D7t0Zp7uZU6-373" value="" style="html=1;points=[[0,0,0,0,5],[0,1,0,0,-5],[1,0,0,0,5],[1,1,0,0,-5]];perimeter=orthogonalPerimeter;outlineConnect=0;targetShapes=umlLifeline;portConstraint=eastwest;newEdgeStyle={&quot;curved&quot;:0,&quot;rounded&quot;:0};" parent="UFIIIXsz1D7t0Zp7uZU6-372" vertex="1">
          <mxGeometry x="45" y="200" width="10" height="30" as="geometry" />
        </mxCell>
        <mxCell id="UFIIIXsz1D7t0Zp7uZU6-374" value="" style="html=1;points=[[0,0,0,0,5],[0,1,0,0,-5],[1,0,0,0,5],[1,1,0,0,-5]];perimeter=orthogonalPerimeter;outlineConnect=0;targetShapes=umlLifeline;portConstraint=eastwest;newEdgeStyle={&quot;curved&quot;:0,&quot;rounded&quot;:0};" parent="UFIIIXsz1D7t0Zp7uZU6-372" vertex="1">
          <mxGeometry x="45" y="610" width="10" height="40" as="geometry" />
        </mxCell>
        <mxCell id="UFIIIXsz1D7t0Zp7uZU6-375" value="SECUENCIA DE PAGO DE SERVICIOS" style="text;align=center;fontStyle=1;verticalAlign=middle;spacingLeft=3;spacingRight=3;strokeColor=none;rotatable=0;points=[[0,0.5],[1,0.5]];portConstraint=eastwest;html=1;fontSize=26;" parent="1" vertex="1">
          <mxGeometry x="1995" y="61" width="200" height="96" as="geometry" />
        </mxCell>
        <mxCell id="UFIIIXsz1D7t0Zp7uZU6-376" value="Insertar Tarjeta" style="html=1;verticalAlign=bottom;startArrow=oval;startFill=1;endArrow=block;startSize=8;curved=0;rounded=0;" parent="1" source="UFIIIXsz1D7t0Zp7uZU6-348" target="UFIIIXsz1D7t0Zp7uZU6-355" edge="1">
          <mxGeometry width="60" relative="1" as="geometry">
            <mxPoint x="1935" y="341" as="sourcePoint" />
            <mxPoint x="1995" y="341" as="targetPoint" />
            <Array as="points">
              <mxPoint x="1875" y="261" />
            </Array>
          </mxGeometry>
        </mxCell>
        <mxCell id="UFIIIXsz1D7t0Zp7uZU6-377" value="validacion de tarjeta" style="html=1;verticalAlign=bottom;startArrow=oval;startFill=1;endArrow=block;startSize=8;curved=0;rounded=0;" parent="1" source="UFIIIXsz1D7t0Zp7uZU6-356" target="UFIIIXsz1D7t0Zp7uZU6-363" edge="1">
          <mxGeometry width="60" relative="1" as="geometry">
            <mxPoint x="2085" y="331" as="sourcePoint" />
            <mxPoint x="2145" y="331" as="targetPoint" />
            <Array as="points">
              <mxPoint x="2085" y="281" />
            </Array>
          </mxGeometry>
        </mxCell>
        <mxCell id="UFIIIXsz1D7t0Zp7uZU6-378" value="tarjeta valida/invalida" style="html=1;verticalAlign=bottom;endArrow=open;dashed=1;endSize=8;curved=0;rounded=0;exitX=0;exitY=1;exitDx=0;exitDy=-5;exitPerimeter=0;" parent="1" source="UFIIIXsz1D7t0Zp7uZU6-364" target="UFIIIXsz1D7t0Zp7uZU6-355" edge="1">
          <mxGeometry relative="1" as="geometry">
            <mxPoint x="2155" y="331" as="sourcePoint" />
            <mxPoint x="2075" y="331" as="targetPoint" />
          </mxGeometry>
        </mxCell>
        <mxCell id="UFIIIXsz1D7t0Zp7uZU6-379" value="tarjeta invalida utilizada" style="html=1;verticalAlign=bottom;startArrow=oval;startFill=1;endArrow=block;startSize=8;curved=0;rounded=0;exitX=1;exitY=1;exitDx=0;exitDy=-5;exitPerimeter=0;" parent="1" source="UFIIIXsz1D7t0Zp7uZU6-364" target="UFIIIXsz1D7t0Zp7uZU6-372" edge="1">
          <mxGeometry width="60" relative="1" as="geometry">
            <mxPoint x="2145" y="341" as="sourcePoint" />
            <mxPoint x="2205" y="341" as="targetPoint" />
          </mxGeometry>
        </mxCell>
        <mxCell id="UFIIIXsz1D7t0Zp7uZU6-380" value="Tarjeta aceptada/rechazada" style="html=1;verticalAlign=bottom;endArrow=open;dashed=1;endSize=8;curved=0;rounded=0;" parent="1" source="UFIIIXsz1D7t0Zp7uZU6-356" target="UFIIIXsz1D7t0Zp7uZU6-348" edge="1">
          <mxGeometry x="0.024" relative="1" as="geometry">
            <mxPoint x="1995" y="311" as="sourcePoint" />
            <mxPoint x="1915" y="311" as="targetPoint" />
            <Array as="points">
              <mxPoint x="1875" y="301" />
            </Array>
            <mxPoint as="offset" />
          </mxGeometry>
        </mxCell>
        <mxCell id="UFIIIXsz1D7t0Zp7uZU6-381" value="solicitud de pin para iniciar sesion" style="html=1;verticalAlign=bottom;startArrow=oval;startFill=1;endArrow=block;startSize=8;curved=0;rounded=0;" parent="1" source="UFIIIXsz1D7t0Zp7uZU6-363" target="UFIIIXsz1D7t0Zp7uZU6-355" edge="1">
          <mxGeometry width="60" relative="1" as="geometry">
            <mxPoint x="2085" y="281" as="sourcePoint" />
            <mxPoint x="2145" y="281" as="targetPoint" />
            <Array as="points">
              <mxPoint x="2085" y="331" />
            </Array>
          </mxGeometry>
        </mxCell>
        <mxCell id="UFIIIXsz1D7t0Zp7uZU6-382" value="solicitar pin" style="html=1;verticalAlign=bottom;startArrow=oval;startFill=1;endArrow=block;startSize=8;curved=0;rounded=0;exitX=0;exitY=0;exitDx=0;exitDy=5;exitPerimeter=0;" parent="1" source="UFIIIXsz1D7t0Zp7uZU6-358" target="UFIIIXsz1D7t0Zp7uZU6-348" edge="1">
          <mxGeometry width="60" relative="1" as="geometry">
            <mxPoint x="1965" y="291" as="sourcePoint" />
            <mxPoint x="2025" y="291" as="targetPoint" />
          </mxGeometry>
        </mxCell>
        <mxCell id="UFIIIXsz1D7t0Zp7uZU6-383" value="Ingresar Pin" style="html=1;verticalAlign=bottom;endArrow=open;dashed=1;endSize=8;curved=0;rounded=0;exitX=1;exitY=1;exitDx=0;exitDy=-5;exitPerimeter=0;" parent="1" source="UFIIIXsz1D7t0Zp7uZU6-349" target="UFIIIXsz1D7t0Zp7uZU6-358" edge="1">
          <mxGeometry relative="1" as="geometry">
            <mxPoint x="2055" y="351" as="sourcePoint" />
            <mxPoint x="1975" y="351" as="targetPoint" />
          </mxGeometry>
        </mxCell>
        <mxCell id="UFIIIXsz1D7t0Zp7uZU6-384" value="verificacion de pin" style="html=1;verticalAlign=bottom;startArrow=oval;startFill=1;endArrow=block;startSize=8;curved=0;rounded=0;" parent="1" source="UFIIIXsz1D7t0Zp7uZU6-358" target="UFIIIXsz1D7t0Zp7uZU6-363" edge="1">
          <mxGeometry width="60" relative="1" as="geometry">
            <mxPoint x="2075" y="351" as="sourcePoint" />
            <mxPoint x="2135" y="351" as="targetPoint" />
            <Array as="points">
              <mxPoint x="2055" y="361" />
            </Array>
          </mxGeometry>
        </mxCell>
        <mxCell id="UFIIIXsz1D7t0Zp7uZU6-385" value="pin valido/invalido" style="html=1;verticalAlign=bottom;endArrow=open;dashed=1;endSize=8;curved=0;rounded=0;" parent="1" source="UFIIIXsz1D7t0Zp7uZU6-363" target="UFIIIXsz1D7t0Zp7uZU6-355" edge="1">
          <mxGeometry relative="1" as="geometry">
            <mxPoint x="2145" y="351" as="sourcePoint" />
            <mxPoint x="2065" y="351" as="targetPoint" />
            <Array as="points">
              <mxPoint x="2135" y="381" />
            </Array>
          </mxGeometry>
        </mxCell>
        <mxCell id="UFIIIXsz1D7t0Zp7uZU6-386" value="pin valido/invalido" style="html=1;verticalAlign=bottom;endArrow=open;dashed=1;endSize=8;curved=0;rounded=0;" parent="1" source="UFIIIXsz1D7t0Zp7uZU6-358" target="UFIIIXsz1D7t0Zp7uZU6-348" edge="1">
          <mxGeometry relative="1" as="geometry">
            <mxPoint x="1955" y="381" as="sourcePoint" />
            <mxPoint x="2065" y="351" as="targetPoint" />
            <Array as="points">
              <mxPoint x="1875" y="381" />
            </Array>
          </mxGeometry>
        </mxCell>
        <mxCell id="UFIIIXsz1D7t0Zp7uZU6-387" value="notifica al banco/invalida tarjeta&lt;div&gt;por 3er intento&lt;/div&gt;" style="html=1;verticalAlign=bottom;startArrow=oval;startFill=1;endArrow=block;startSize=8;curved=0;rounded=0;" parent="1" source="UFIIIXsz1D7t0Zp7uZU6-363" target="UFIIIXsz1D7t0Zp7uZU6-372" edge="1">
          <mxGeometry width="60" relative="1" as="geometry">
            <mxPoint x="2235" y="371" as="sourcePoint" />
            <mxPoint x="2295" y="371" as="targetPoint" />
            <Array as="points">
              <mxPoint x="2305" y="381" />
            </Array>
          </mxGeometry>
        </mxCell>
        <mxCell id="UFIIIXsz1D7t0Zp7uZU6-388" value="invalida la tarjeta" style="html=1;verticalAlign=bottom;endArrow=open;dashed=1;endSize=8;curved=0;rounded=0;" parent="1" source="UFIIIXsz1D7t0Zp7uZU6-372" target="UFIIIXsz1D7t0Zp7uZU6-355" edge="1">
          <mxGeometry x="0.5093" relative="1" as="geometry">
            <mxPoint x="2215" y="411" as="sourcePoint" />
            <mxPoint x="2195" y="411" as="targetPoint" />
            <Array as="points">
              <mxPoint x="2195" y="411" />
            </Array>
            <mxPoint as="offset" />
          </mxGeometry>
        </mxCell>
        <mxCell id="UFIIIXsz1D7t0Zp7uZU6-389" value="notifica el bloqueo de la tarjeta" style="html=1;verticalAlign=bottom;endArrow=open;dashed=1;endSize=8;curved=0;rounded=0;" parent="1" source="UFIIIXsz1D7t0Zp7uZU6-358" target="UFIIIXsz1D7t0Zp7uZU6-348" edge="1">
          <mxGeometry relative="1" as="geometry">
            <mxPoint x="2165" y="331" as="sourcePoint" />
            <mxPoint x="2085" y="331" as="targetPoint" />
            <Array as="points">
              <mxPoint x="1875" y="411" />
            </Array>
          </mxGeometry>
        </mxCell>
        <mxCell id="UFIIIXsz1D7t0Zp7uZU6-390" value="inicia sesion/solicita operacion" style="html=1;verticalAlign=bottom;startArrow=oval;startFill=1;endArrow=block;startSize=8;curved=0;rounded=0;exitX=0;exitY=0;exitDx=0;exitDy=5;exitPerimeter=0;" parent="1" source="UFIIIXsz1D7t0Zp7uZU6-359" target="UFIIIXsz1D7t0Zp7uZU6-348" edge="1">
          <mxGeometry width="60" relative="1" as="geometry">
            <mxPoint x="1995" y="411" as="sourcePoint" />
            <mxPoint x="2055" y="411" as="targetPoint" />
          </mxGeometry>
        </mxCell>
        <mxCell id="UFIIIXsz1D7t0Zp7uZU6-391" value="Pago de servicios" style="html=1;verticalAlign=bottom;endArrow=open;dashed=1;endSize=8;curved=0;rounded=0;" parent="1" source="UFIIIXsz1D7t0Zp7uZU6-348" target="UFIIIXsz1D7t0Zp7uZU6-359" edge="1">
          <mxGeometry relative="1" as="geometry">
            <mxPoint x="2095" y="401" as="sourcePoint" />
            <mxPoint x="2015" y="401" as="targetPoint" />
            <Array as="points">
              <mxPoint x="1875" y="481" />
            </Array>
          </mxGeometry>
        </mxCell>
        <mxCell id="UFIIIXsz1D7t0Zp7uZU6-392" value="solicitar Pago de servicios" style="html=1;verticalAlign=bottom;startArrow=oval;startFill=1;endArrow=block;startSize=8;curved=0;rounded=0;" parent="1" source="UFIIIXsz1D7t0Zp7uZU6-355" target="UFIIIXsz1D7t0Zp7uZU6-363" edge="1">
          <mxGeometry width="60" relative="1" as="geometry">
            <mxPoint x="2135" y="411" as="sourcePoint" />
            <mxPoint x="2195" y="411" as="targetPoint" />
            <Array as="points">
              <mxPoint x="2085" y="481" />
            </Array>
          </mxGeometry>
        </mxCell>
        <mxCell id="UFIIIXsz1D7t0Zp7uZU6-393" value="solicitar tipo de servicio" style="html=1;verticalAlign=bottom;startArrow=oval;startFill=1;endArrow=block;startSize=8;curved=0;rounded=0;" parent="1" source="UFIIIXsz1D7t0Zp7uZU6-363" target="UFIIIXsz1D7t0Zp7uZU6-355" edge="1">
          <mxGeometry width="60" relative="1" as="geometry">
            <mxPoint x="2065" y="431" as="sourcePoint" />
            <mxPoint x="2125" y="431" as="targetPoint" />
            <Array as="points">
              <mxPoint x="2075" y="501" />
            </Array>
          </mxGeometry>
        </mxCell>
        <mxCell id="UFIIIXsz1D7t0Zp7uZU6-394" value="digitar servicio" style="html=1;verticalAlign=bottom;startArrow=oval;startFill=1;endArrow=block;startSize=8;curved=0;rounded=0;" parent="1" source="UFIIIXsz1D7t0Zp7uZU6-360" target="UFIIIXsz1D7t0Zp7uZU6-348" edge="1">
          <mxGeometry width="60" relative="1" as="geometry">
            <mxPoint x="2025" y="451" as="sourcePoint" />
            <mxPoint x="2085" y="451" as="targetPoint" />
            <Array as="points">
              <mxPoint x="1875" y="511" />
            </Array>
          </mxGeometry>
        </mxCell>
        <mxCell id="UFIIIXsz1D7t0Zp7uZU6-395" value="servicio digitado" style="html=1;verticalAlign=bottom;endArrow=open;dashed=1;endSize=8;curved=0;rounded=0;exitX=1;exitY=1;exitDx=0;exitDy=-5;exitPerimeter=0;" parent="1" source="UFIIIXsz1D7t0Zp7uZU6-351" target="UFIIIXsz1D7t0Zp7uZU6-360" edge="1">
          <mxGeometry x="0.0037" relative="1" as="geometry">
            <mxPoint x="2095" y="451" as="sourcePoint" />
            <mxPoint x="2015" y="451" as="targetPoint" />
            <mxPoint as="offset" />
          </mxGeometry>
        </mxCell>
        <mxCell id="UFIIIXsz1D7t0Zp7uZU6-396" value="verificar servicio" style="html=1;verticalAlign=bottom;endArrow=open;dashed=1;endSize=8;curved=0;rounded=0;" parent="1" source="UFIIIXsz1D7t0Zp7uZU6-355" target="UFIIIXsz1D7t0Zp7uZU6-366" edge="1">
          <mxGeometry relative="1" as="geometry">
            <mxPoint x="2145" y="461" as="sourcePoint" />
            <mxPoint x="2065" y="461" as="targetPoint" />
            <Array as="points">
              <mxPoint x="2085" y="551" />
            </Array>
          </mxGeometry>
        </mxCell>
        <mxCell id="UFIIIXsz1D7t0Zp7uZU6-397" value="servicio si/no disponible" style="html=1;verticalAlign=bottom;endArrow=open;dashed=1;endSize=8;curved=0;rounded=0;" parent="1" source="UFIIIXsz1D7t0Zp7uZU6-363" target="UFIIIXsz1D7t0Zp7uZU6-355" edge="1">
          <mxGeometry x="-0.001" relative="1" as="geometry">
            <mxPoint x="2145" y="511" as="sourcePoint" />
            <mxPoint x="2065" y="511" as="targetPoint" />
            <Array as="points">
              <mxPoint x="2095" y="601" />
            </Array>
            <mxPoint as="offset" />
          </mxGeometry>
        </mxCell>
        <mxCell id="UFIIIXsz1D7t0Zp7uZU6-398" value="servicio si/no disponible" style="html=1;verticalAlign=bottom;endArrow=open;dashed=1;endSize=8;curved=0;rounded=0;" parent="1" source="UFIIIXsz1D7t0Zp7uZU6-355" target="UFIIIXsz1D7t0Zp7uZU6-348" edge="1">
          <mxGeometry relative="1" as="geometry">
            <mxPoint x="2025" y="541" as="sourcePoint" />
            <mxPoint x="1945" y="541" as="targetPoint" />
            <Array as="points">
              <mxPoint x="1885" y="601" />
            </Array>
          </mxGeometry>
        </mxCell>
        <mxCell id="UFIIIXsz1D7t0Zp7uZU6-399" value="solicitud de recibo" style="html=1;verticalAlign=bottom;startArrow=oval;startFill=1;endArrow=block;startSize=8;curved=0;rounded=0;" parent="1" source="UFIIIXsz1D7t0Zp7uZU6-356" target="UFIIIXsz1D7t0Zp7uZU6-352" edge="1">
          <mxGeometry width="60" relative="1" as="geometry">
            <mxPoint x="1965" y="721" as="sourcePoint" />
            <mxPoint x="1945" y="661" as="targetPoint" />
            <Array as="points">
              <mxPoint x="1885" y="861" />
              <mxPoint x="1835" y="861" />
            </Array>
          </mxGeometry>
        </mxCell>
        <mxCell id="UFIIIXsz1D7t0Zp7uZU6-400" value="si/no" style="html=1;verticalAlign=bottom;endArrow=open;dashed=1;endSize=8;curved=0;rounded=0;exitX=1;exitY=1;exitDx=0;exitDy=-5;exitPerimeter=0;" parent="1" source="UFIIIXsz1D7t0Zp7uZU6-352" target="UFIIIXsz1D7t0Zp7uZU6-356" edge="1">
          <mxGeometry relative="1" as="geometry">
            <mxPoint x="1975" y="741" as="sourcePoint" />
            <mxPoint x="1895" y="741" as="targetPoint" />
            <Array as="points">
              <mxPoint x="1895" y="886" />
            </Array>
          </mxGeometry>
        </mxCell>
        <mxCell id="UFIIIXsz1D7t0Zp7uZU6-401" value="solicitar y registrar recibo" style="html=1;verticalAlign=bottom;startArrow=oval;startFill=1;endArrow=block;startSize=8;curved=0;rounded=0;" parent="1" source="UFIIIXsz1D7t0Zp7uZU6-356" target="UFIIIXsz1D7t0Zp7uZU6-368" edge="1">
          <mxGeometry width="60" relative="1" as="geometry">
            <mxPoint x="1975" y="751" as="sourcePoint" />
            <mxPoint x="2035" y="751" as="targetPoint" />
          </mxGeometry>
        </mxCell>
        <mxCell id="UFIIIXsz1D7t0Zp7uZU6-402" value="devolver informacion de operacion" style="html=1;verticalAlign=bottom;endArrow=open;dashed=1;endSize=8;curved=0;rounded=0;" parent="1" source="UFIIIXsz1D7t0Zp7uZU6-363" target="UFIIIXsz1D7t0Zp7uZU6-356" edge="1">
          <mxGeometry relative="1" as="geometry">
            <mxPoint x="2135" y="831" as="sourcePoint" />
            <mxPoint x="2055" y="831" as="targetPoint" />
            <Array as="points">
              <mxPoint x="2095" y="991" />
            </Array>
          </mxGeometry>
        </mxCell>
        <mxCell id="UFIIIXsz1D7t0Zp7uZU6-403" value="imprimir/mostrar recibo" style="html=1;verticalAlign=bottom;endArrow=open;dashed=1;endSize=8;curved=0;rounded=0;" parent="1" source="UFIIIXsz1D7t0Zp7uZU6-356" target="UFIIIXsz1D7t0Zp7uZU6-348" edge="1">
          <mxGeometry relative="1" as="geometry">
            <mxPoint x="1945" y="841" as="sourcePoint" />
            <mxPoint x="1865" y="841" as="targetPoint" />
            <Array as="points">
              <mxPoint x="1905" y="991" />
            </Array>
          </mxGeometry>
        </mxCell>
        <mxCell id="UFIIIXsz1D7t0Zp7uZU6-404" value="retirar tarjeta" style="html=1;verticalAlign=bottom;endArrow=open;dashed=1;endSize=8;curved=0;rounded=0;" parent="1" source="UFIIIXsz1D7t0Zp7uZU6-355" target="UFIIIXsz1D7t0Zp7uZU6-348" edge="1">
          <mxGeometry relative="1" as="geometry">
            <mxPoint x="1915" y="821" as="sourcePoint" />
            <mxPoint x="1835" y="821" as="targetPoint" />
            <Array as="points">
              <mxPoint x="1905" y="1041" />
            </Array>
          </mxGeometry>
        </mxCell>
        <mxCell id="UFIIIXsz1D7t0Zp7uZU6-405" value="solicitar numero identificador de recibo" style="html=1;verticalAlign=bottom;startArrow=oval;startFill=1;endArrow=block;startSize=8;curved=0;rounded=0;" parent="1" source="UFIIIXsz1D7t0Zp7uZU6-363" target="UFIIIXsz1D7t0Zp7uZU6-356" edge="1">
          <mxGeometry width="60" relative="1" as="geometry">
            <mxPoint x="1985" y="611" as="sourcePoint" />
            <mxPoint x="2045" y="611" as="targetPoint" />
            <Array as="points">
              <mxPoint x="2105" y="641" />
            </Array>
          </mxGeometry>
        </mxCell>
        <mxCell id="UFIIIXsz1D7t0Zp7uZU6-406" value="solicitar numero identificador&lt;div&gt;de recibo&lt;/div&gt;" style="html=1;verticalAlign=bottom;startArrow=oval;startFill=1;endArrow=block;startSize=8;curved=0;rounded=0;exitX=0;exitY=0;exitDx=0;exitDy=5;exitPerimeter=0;" parent="1" source="UFIIIXsz1D7t0Zp7uZU6-361" target="UFIIIXsz1D7t0Zp7uZU6-348" edge="1">
          <mxGeometry width="60" relative="1" as="geometry">
            <mxPoint x="1905" y="651" as="sourcePoint" />
            <mxPoint x="1965" y="651" as="targetPoint" />
          </mxGeometry>
        </mxCell>
        <mxCell id="UFIIIXsz1D7t0Zp7uZU6-407" value="datos digitados" style="html=1;verticalAlign=bottom;endArrow=open;dashed=1;endSize=8;curved=0;rounded=0;exitX=1;exitY=1;exitDx=0;exitDy=-5;exitPerimeter=0;" parent="1" source="UFIIIXsz1D7t0Zp7uZU6-353" target="UFIIIXsz1D7t0Zp7uZU6-361" edge="1">
          <mxGeometry relative="1" as="geometry">
            <mxPoint x="2005" y="611" as="sourcePoint" />
            <mxPoint x="2085" y="611" as="targetPoint" />
          </mxGeometry>
        </mxCell>
        <mxCell id="UFIIIXsz1D7t0Zp7uZU6-408" value="verificar validez de datos" style="html=1;verticalAlign=bottom;endArrow=open;dashed=1;endSize=8;curved=0;rounded=0;exitX=1;exitY=1;exitDx=0;exitDy=-5;exitPerimeter=0;" parent="1" source="UFIIIXsz1D7t0Zp7uZU6-361" target="UFIIIXsz1D7t0Zp7uZU6-363" edge="1">
          <mxGeometry relative="1" as="geometry">
            <mxPoint x="2045" y="691" as="sourcePoint" />
            <mxPoint x="2125" y="691" as="targetPoint" />
          </mxGeometry>
        </mxCell>
        <mxCell id="UFIIIXsz1D7t0Zp7uZU6-409" value="datos validos/invalidos" style="html=1;verticalAlign=bottom;endArrow=open;dashed=1;endSize=8;curved=0;rounded=0;" parent="1" source="UFIIIXsz1D7t0Zp7uZU6-363" target="UFIIIXsz1D7t0Zp7uZU6-355" edge="1">
          <mxGeometry relative="1" as="geometry">
            <mxPoint x="2145" y="711" as="sourcePoint" />
            <mxPoint x="2065" y="711" as="targetPoint" />
            <Array as="points">
              <mxPoint x="2085" y="711" />
            </Array>
          </mxGeometry>
        </mxCell>
        <mxCell id="UFIIIXsz1D7t0Zp7uZU6-410" value="datos validos/invalidos" style="html=1;verticalAlign=bottom;endArrow=open;dashed=1;endSize=8;curved=0;rounded=0;" parent="1" source="UFIIIXsz1D7t0Zp7uZU6-356" target="UFIIIXsz1D7t0Zp7uZU6-348" edge="1">
          <mxGeometry relative="1" as="geometry">
            <mxPoint x="1995" y="711" as="sourcePoint" />
            <mxPoint x="1775" y="711" as="targetPoint" />
            <Array as="points">
              <mxPoint x="1885" y="711" />
            </Array>
          </mxGeometry>
        </mxCell>
        <mxCell id="UFIIIXsz1D7t0Zp7uZU6-411" value="confirmacion de pago" style="html=1;verticalAlign=bottom;startArrow=oval;startFill=1;endArrow=block;startSize=8;curved=0;rounded=0;" parent="1" source="UFIIIXsz1D7t0Zp7uZU6-363" target="UFIIIXsz1D7t0Zp7uZU6-355" edge="1">
          <mxGeometry width="60" relative="1" as="geometry">
            <mxPoint x="2125" y="701" as="sourcePoint" />
            <mxPoint x="2065" y="701" as="targetPoint" />
            <Array as="points">
              <mxPoint x="2085" y="751" />
            </Array>
          </mxGeometry>
        </mxCell>
        <mxCell id="UFIIIXsz1D7t0Zp7uZU6-412" value="si/no efectuar operacion" style="html=1;verticalAlign=bottom;endArrow=open;dashed=1;endSize=8;curved=0;rounded=0;exitX=1;exitY=1;exitDx=0;exitDy=-5;exitPerimeter=0;" parent="1" source="UFIIIXsz1D7t0Zp7uZU6-362" target="UFIIIXsz1D7t0Zp7uZU6-366" edge="1">
          <mxGeometry relative="1" as="geometry">
            <mxPoint x="2055" y="781" as="sourcePoint" />
            <mxPoint x="1995" y="761" as="targetPoint" />
          </mxGeometry>
        </mxCell>
        <mxCell id="UFIIIXsz1D7t0Zp7uZU6-413" value="confirmacion de pago" style="html=1;verticalAlign=bottom;startArrow=oval;startFill=1;endArrow=block;startSize=8;curved=0;rounded=0;" parent="1" edge="1">
          <mxGeometry width="60" relative="1" as="geometry">
            <mxPoint x="1975" y="751" as="sourcePoint" />
            <mxPoint x="1785" y="751" as="targetPoint" />
            <Array as="points">
              <mxPoint x="1895" y="751" />
            </Array>
          </mxGeometry>
        </mxCell>
        <mxCell id="UFIIIXsz1D7t0Zp7uZU6-414" value="si/no" style="html=1;verticalAlign=bottom;endArrow=open;dashed=1;endSize=8;curved=0;rounded=0;exitX=1;exitY=1;exitDx=0;exitDy=-5;exitPerimeter=0;" parent="1" source="UFIIIXsz1D7t0Zp7uZU6-354" target="UFIIIXsz1D7t0Zp7uZU6-362" edge="1">
          <mxGeometry relative="1" as="geometry">
            <mxPoint x="1795" y="776" as="sourcePoint" />
            <mxPoint x="2000" y="776" as="targetPoint" />
          </mxGeometry>
        </mxCell>
        <mxCell id="UFIIIXsz1D7t0Zp7uZU6-415" value="registrar movimiento de dinero" style="html=1;verticalAlign=bottom;startArrow=oval;startFill=1;endArrow=block;startSize=8;curved=0;rounded=0;" parent="1" target="UFIIIXsz1D7t0Zp7uZU6-372" edge="1">
          <mxGeometry width="60" relative="1" as="geometry">
            <mxPoint x="2195" y="791" as="sourcePoint" />
            <mxPoint x="2255" y="791" as="targetPoint" />
          </mxGeometry>
        </mxCell>
        <mxCell id="UFIIIXsz1D7t0Zp7uZU6-416" value="confirmar movimiento de dinero" style="html=1;verticalAlign=bottom;endArrow=open;dashed=1;endSize=8;curved=0;rounded=0;entryX=1;entryY=1;entryDx=0;entryDy=-5;entryPerimeter=0;" parent="1" target="UFIIIXsz1D7t0Zp7uZU6-371" edge="1">
          <mxGeometry relative="1" as="geometry">
            <mxPoint x="2425" y="831" as="sourcePoint" />
            <mxPoint x="2345" y="831" as="targetPoint" />
            <Array as="points">
              <mxPoint x="2305" y="831" />
            </Array>
          </mxGeometry>
        </mxCell>
        <mxCell id="UFIIIXsz1D7t0Zp7uZU6-417" value="pago si/no efectuado" style="html=1;verticalAlign=bottom;endArrow=open;dashed=1;endSize=8;curved=0;rounded=0;" parent="1" target="UFIIIXsz1D7t0Zp7uZU6-355" edge="1">
          <mxGeometry relative="1" as="geometry">
            <mxPoint x="2185" y="811" as="sourcePoint" />
            <mxPoint x="2105" y="811" as="targetPoint" />
          </mxGeometry>
        </mxCell>
        <mxCell id="UFIIIXsz1D7t0Zp7uZU6-418" value="confirmacion de pago" style="html=1;verticalAlign=bottom;endArrow=open;dashed=1;endSize=8;curved=0;rounded=0;" parent="1" target="UFIIIXsz1D7t0Zp7uZU6-348" edge="1">
          <mxGeometry relative="1" as="geometry">
            <mxPoint x="1975" y="811" as="sourcePoint" />
            <mxPoint x="1895" y="811" as="targetPoint" />
          </mxGeometry>
        </mxCell>
      </root>
    </mxGraphModel>
  </diagram>
</mxfile>
